<svg xmlns="http://www.w3.org/2000/svg" width="24" height="24" fill="none" viewBox="0 0 24 24"><path fill="#EDF2F4" fill-rule="evenodd" d="M0 12C0 5.37258 5.37258 0 12 0C18.6274 0 24 5.37258 24 12C24 18.6274 18.6274 24 12 24C5.37258 24 0 18.6274 0 12ZM19.1477 11.8993C19.1477 10.1883 17.7346 8.79995 15.9883 8.79995C14.2403 8.79995 12.8263 10.1883 12.8263 11.8993C12.8263 13.6111 14.2403 14.9994 15.9883 14.9994C17.7346 14.9994 19.1477 13.6111 19.1477 11.8993ZM7.95857 8.79995C9.70658 8.79995 11.1205 10.1883 11.1205 11.8993C11.1205 13.6111 9.70658 14.9994 7.95857 14.9994C6.21309 14.9994 4.8 13.6111 4.8 11.8993C4.8 10.1883 6.21309 8.79995 7.95857 8.79995Z" clip-rule="evenodd"/></svg>