<svg width="24" height="24" viewBox="0 0 24 24" fill="none" xmlns="http://www.w3.org/2000/svg">
<path fill-rule="evenodd" clip-rule="evenodd" d="M0 12C0 18.6274 5.37258 24 12 24C18.6274 24 24 18.6274 24 12C24 5.37258 18.6274 0 12 0C5.37258 0 0 5.37258 0 12ZM13.0475 9.41046C13.4945 9.85824 13.9416 10.3063 14.395 10.7494C14.6257 10.5243 14.8529 10.2958 15.0801 10.0673C15.2394 9.90718 15.3986 9.74707 15.559 9.58814C15.6995 9.44627 15.841 9.30582 15.9824 9.16544L15.9825 9.16536L15.9826 9.16528C16.2372 8.91259 16.4915 8.66012 16.7397 8.39997H16.7694C16.8639 8.51338 16.969 8.61627 17.074 8.71915L17.074 8.71917L17.0741 8.71925L17.0741 8.7193C17.1341 8.77805 17.1941 8.8368 17.2521 8.89752L19.0529 10.6983C19.0613 10.7078 19.0712 10.7169 19.0813 10.7262L19.0813 10.7262C19.107 10.75 19.1341 10.7751 19.1421 10.8097C18.7523 11.1887 18.3685 11.5747 17.9846 11.9609L17.9846 11.9609L17.9845 11.961C17.5749 12.373 17.165 12.7854 16.7472 13.1898L14.4636 10.9063C14.4525 10.894 14.4403 10.8827 14.4282 10.8715C14.4161 10.8603 14.4042 10.8493 14.3935 10.8374C14.3833 10.8483 14.3722 10.8585 14.3612 10.8687L14.3612 10.8687L14.3612 10.8687C14.3531 10.8762 14.345 10.8837 14.3373 10.8914C13.955 11.2719 13.5735 11.6534 13.1921 12.0348C12.8068 12.4201 12.4215 12.8054 12.0353 13.1898C11.6788 12.8383 11.3253 12.4838 10.9718 12.1294C10.5299 11.6864 10.088 11.2433 9.64035 10.806C10.0519 10.3768 10.4748 9.95594 10.8976 9.53512L10.8977 9.53502C11.276 9.15856 11.6542 8.78216 12.0241 8.39997H12.0538C12.0762 8.43339 12.0984 8.4631 12.1281 8.4928C12.4357 8.79746 12.7416 9.1039 13.0475 9.41046ZM7.17635 8.39997C6.74194 8.84552 6.30086 9.28571 5.8595 9.72618L5.85932 9.72635C5.56511 10.02 5.27078 10.3137 4.97824 10.6092C4.95927 10.6294 4.93842 10.6484 4.91749 10.6675C4.87286 10.7082 4.82787 10.7492 4.80001 10.8023C5.19896 11.1994 5.59698 11.5974 5.99499 11.9954L5.99561 11.996L5.99622 11.9966C6.39424 12.3947 6.79226 12.7927 7.1912 13.1898C7.58984 12.793 7.98756 12.3944 8.38527 11.9957L8.38569 11.9953C8.78058 11.5995 9.17547 11.2037 9.57125 10.8097V10.78L7.93009 9.13887C7.84314 9.04924 7.75428 8.96203 7.66557 8.87497L7.66554 8.87494C7.50802 8.72035 7.35099 8.56624 7.20605 8.39997H7.17635ZM9.65149 15.6204C9.65521 15.6111 9.65892 15.6018 9.66263 15.5944C9.92364 15.3334 10.1851 15.0723 10.4466 14.8112C10.9702 14.2885 11.4943 13.7652 12.0167 13.2403L12.05 13.2552L12.0502 13.2553C12.8373 14.0461 13.6244 14.837 14.4189 15.6204C14.402 15.6591 14.3724 15.6868 14.3425 15.7148C14.3266 15.7297 14.3106 15.7447 14.2964 15.7615C14.012 16.0441 13.7275 16.3285 13.4431 16.6129C13.1557 16.9003 12.8683 17.1877 12.581 17.4732C12.5067 17.5445 12.4335 17.6195 12.3604 17.6944C12.2508 17.8066 12.1413 17.9188 12.0278 18.019C11.8698 17.8761 11.7194 17.7232 11.5691 17.5704C11.4617 17.4611 11.3543 17.352 11.2443 17.2467C11.1126 17.115 10.9811 16.9832 10.8497 16.8516C10.4477 16.4488 10.0461 16.0465 9.64035 15.6464C9.64407 15.6389 9.64778 15.6296 9.65149 15.6204Z" fill="#EDF2F4"/>
</svg>
