<svg xmlns="http://www.w3.org/2000/svg" width="28" height="28" fill="none" viewBox="0 0 28 28"><path fill="#fff" fill-rule="evenodd" d="M14 0C6.26801 0 0 6.26801 0 14C0 21.732 6.26801 28 14 28C21.732 28 28 21.732 28 14C28 6.26801 21.732 0 14 0ZM8.69467 6.06671H19.772C20.7061 6.06671 21.4667 6.81804 21.4667 7.74904V22.4L19.6893 20.8484L18.6891 19.9337L17.6309 18.9619L18.0691 20.4727H8.69467C7.76053 20.4727 7 19.7214 7 18.7904V7.74904C7 6.81804 7.76053 6.06671 8.69467 6.06671Z" clip-rule="evenodd"/><path fill="#fff" fill-rule="evenodd" d="M16.5809 16.7331C16.5809 16.7331 16.2833 16.3819 16.0353 16.0716C17.1183 15.7694 17.5316 15.0998 17.5316 15.0998C17.1927 15.3203 16.8703 15.4754 16.5809 15.5816C16.1676 15.7531 15.7708 15.8674 15.3823 15.9328C14.5887 16.0798 13.8612 16.0389 13.2412 15.9246C12.77 15.8348 12.3649 15.7041 12.026 15.5734C11.8359 15.4999 11.6292 15.4101 11.4225 15.2958C11.4101 15.2876 11.3977 15.2815 11.3853 15.2754C11.3729 15.2692 11.3605 15.2631 11.3481 15.2549C11.3316 15.2468 11.3233 15.2386 11.3151 15.2304C11.1663 15.1488 11.0836 15.0916 11.0836 15.0916C11.0836 15.0916 11.4804 15.7449 12.5303 16.0553C12.2823 16.3656 11.9764 16.7331 11.9764 16.7331C10.1495 16.6759 9.45508 15.4918 9.45508 15.4918C9.45508 12.8621 10.6455 10.7306 10.6455 10.7306C11.8359 9.84861 12.9684 9.87311 12.9684 9.87311L13.0511 9.97111C11.5631 10.3958 10.8769 11.0409 10.8769 11.0409C10.8769 11.0409 11.0588 10.9429 11.3647 10.8041C12.2492 10.4203 12.9519 10.3141 13.2412 10.2896L13.2597 10.2865C13.3014 10.2795 13.3384 10.2733 13.3817 10.2733C13.886 10.2079 14.4564 10.1916 15.0516 10.2569C15.8369 10.3468 16.6801 10.5754 17.5399 11.0409C17.5399 11.0409 16.8868 10.4284 15.4815 10.0038L15.5972 9.87311C15.5972 9.87311 16.7297 9.84861 17.9201 10.7306C17.9201 10.7306 19.1105 12.8621 19.1105 15.4918C19.1105 15.4918 18.4079 16.6759 16.5809 16.7331ZM12.9698 13.0675C12.5023 13.0675 12.1332 13.4879 12.1332 14.0008C12.1332 14.5137 12.5105 14.9341 12.9698 14.9341C13.4373 14.9341 13.8063 14.5137 13.8063 14.0008C13.8145 13.4879 13.4373 13.0675 12.9698 13.0675ZM15.1268 14.0008C15.1268 13.4879 15.4958 13.0675 15.9633 13.0675C16.4308 13.0675 16.7999 13.4879 16.7999 14.0008C16.7999 14.5137 16.4308 14.9341 15.9633 14.9341C15.504 14.9341 15.1268 14.5137 15.1268 14.0008Z" clip-rule="evenodd"/></svg>