<svg width="28" height="28" viewBox="0 0 28 28" fill="none" xmlns="http://www.w3.org/2000/svg">
<path fill-rule="evenodd" clip-rule="evenodd" d="M0 14C0 6.26801 6.26801 0 14 0C21.732 0 28 6.26801 28 14C28 21.732 21.732 28 14 28C6.26801 28 0 21.732 0 14ZM11.438 13.6V15.12H13.9607C13.8591 15.7723 13.1982 17.0327 11.438 17.0327C9.91931 17.0327 8.68019 15.7787 8.68019 14.2333C8.68019 12.688 9.91931 11.434 11.438 11.434C12.3022 11.434 12.8805 11.8013 13.2109 12.118L14.4183 10.959C13.643 10.237 12.639 9.8 11.438 9.8C8.97885 9.8 6.98991 11.7823 6.98991 14.2333C6.98991 16.6843 8.97885 18.6667 11.438 18.6667C14.0052 18.6667 15.7082 16.868 15.7082 14.3347C15.7082 14.0433 15.6764 13.8217 15.6383 13.6H11.438ZM19.6988 13.6H20.9697V14.8667H19.6988V16.1333H18.4279V14.8667H17.157V13.6H18.4279V12.3333H19.6988V13.6Z" fill="white"/>
</svg>
