<svg xmlns="http://www.w3.org/2000/svg" width="24" height="24" fill="none" viewBox="0 0 24 24"><path fill="#EDF2F4" fill-rule="evenodd" d="M12 24C5.37258 24 0 18.6274 0 12C0 5.37258 5.37258 0 12 0C18.6274 0 24 5.37258 24 12C24 18.6274 18.6274 24 12 24ZM12.1672 11.3266C13.1498 11.3266 17.9272 8.64004 17.9272 8.64004L17.9349 8.16004C17.9349 7.63012 17.5048 7.20004 16.9734 7.20004H7.36095C6.83007 7.20004 6.39999 7.63012 6.39999 8.16004V8.58772C6.39999 8.58772 11.2298 11.3266 12.1672 11.3266ZM6.40767 10.0799C6.40719 10.0799 11.2298 12.6464 12.1672 12.6464C13.1949 12.6464 17.9272 10.0799 17.9272 10.0799L17.9349 15.8399C17.9349 16.3698 17.5048 16.7999 16.9734 16.7999H7.36095C6.83055 16.7999 6.39999 16.3698 6.39999 15.8399L6.40767 10.0799Z" clip-rule="evenodd"/></svg>