<svg xmlns="http://www.w3.org/2000/svg" width="24" height="24" fill="none" viewBox="0 0 24 24"><path fill="#EDF2F4" fill-rule="evenodd" d="M0 12C0 18.6274 5.37258 24 12 24C18.6274 24 24 18.6274 24 12C24 5.37258 18.6274 0 12 0C5.37258 0 0 5.37258 0 12ZM6.448 9.73329C7.15136 9.73329 7.78544 10.0322 8.23196 10.5108L13.6092 7.98422C13.5408 7.75715 13.504 7.51621 13.504 7.26662C13.504 5.90432 14.6 4.79995 15.952 4.79995C17.304 4.79995 18.4 5.90432 18.4 7.26662C18.4 8.62892 17.304 9.73329 15.952 9.73329C15.3771 9.73329 14.8484 9.53357 14.4307 9.19923L8.86617 11.8138C8.88581 11.9396 8.896 12.0686 8.896 12.2C8.896 12.3313 8.88581 12.4603 8.86617 12.5861L14.4307 15.2007C14.8484 14.8663 15.3771 14.6666 15.952 14.6666C17.304 14.6666 18.4 15.771 18.4 17.1333C18.4 18.4956 17.304 19.6 15.952 19.6C14.6 19.6 13.504 18.4956 13.504 17.1333C13.504 16.8837 13.5408 16.6428 13.6092 16.4157L8.23196 13.8891C7.78544 14.3677 7.15136 14.6666 6.448 14.6666C5.09601 14.6666 4 13.5623 4 12.2C4 10.8377 5.09601 9.73329 6.448 9.73329Z" clip-rule="evenodd"/></svg>