<svg xmlns="http://www.w3.org/2000/svg" width="24" height="24" fill="none" viewBox="0 0 24 24"><path fill="#EDF2F4" fill-rule="evenodd" d="M0 12C0 5.37258 5.37258 0 12 0C18.6274 0 24 5.37258 24 12C24 18.6274 18.6274 24 12 24C5.37258 24 0 18.6274 0 12ZM18 12.8179V7.91213C18 7.6109 17.7558 7.36667 17.4546 7.36667C17.1534 7.36667 16.9091 7.6109 16.9091 7.91213V12.8179C16.9091 13.1192 17.1534 13.3634 17.4546 13.3634C17.7558 13.3634 18 13.1192 18 12.8179ZM17.8687 15.463C18.0648 15.6918 18.0383 16.0361 17.8097 16.2322C17.7254 16.3043 15.7047 17.9999 12 17.9999C8.29529 17.9999 6.27465 16.3043 6.19038 16.2322C5.96183 16.0361 5.93524 15.6918 6.13133 15.463C6.32688 15.2347 6.67038 15.2077 6.8992 15.4028C6.93124 15.4296 8.73547 16.909 12 16.909C15.3055 16.909 17.082 15.4189 17.0995 15.4039C17.3278 15.2078 17.6728 15.2342 17.8687 15.463ZM6 7.91213V12.8179C6 13.1192 6.24423 13.3634 6.54546 13.3634C6.84668 13.3634 7.09091 13.1192 7.09091 12.8179V7.91213C7.09091 7.6109 6.84668 7.36667 6.54546 7.36667C6.24423 7.36667 6 7.6109 6 7.91213ZM8.72727 14.1079V6.82094C8.72727 6.51972 8.97149 6.27549 9.27272 6.27549C9.57394 6.27549 9.81817 6.51972 9.81817 6.82094V14.1079C9.81817 14.4092 9.57394 14.6534 9.27272 14.6534C8.97149 14.6534 8.72727 14.4092 8.72727 14.1079ZM11.4545 6.54545V14.4545C11.4545 14.7558 11.6988 15 12 15C12.3012 15 12.5454 14.7558 12.5454 14.4545V6.54545C12.5454 6.24423 12.3012 6 12 6C11.6988 6 11.4545 6.24423 11.4545 6.54545ZM14.1819 14.1079V6.82094C14.1819 6.51972 14.4261 6.27549 14.7273 6.27549C15.0286 6.27549 15.2728 6.51972 15.2728 6.82094V14.1079C15.2728 14.4092 15.0286 14.6534 14.7273 14.6534C14.4261 14.6534 14.1819 14.4092 14.1819 14.1079Z" clip-rule="evenodd"/></svg>