<svg xmlns="http://www.w3.org/2000/svg" width="28" height="28" fill="none" viewBox="0 0 28 28"><path fill="#fff" fill-rule="evenodd" d="M14 0C6.26801 0 0 6.26801 0 14C0 21.732 6.26801 28 14 28C21.732 28 28 21.732 28 14C28 6.26801 21.732 0 14 0ZM13.6101 11.8638L13.5807 11.3794C13.4926 10.1238 14.2662 8.97699 15.4903 8.5321C15.9407 8.37392 16.7046 8.35415 17.204 8.49256C17.3999 8.55188 17.772 8.7496 18.0364 8.92756L18.5162 9.25381L19.045 9.08574C19.3388 8.99676 19.7305 8.84847 19.9068 8.7496C20.0733 8.66063 20.2202 8.6112 20.2202 8.64085C20.2202 8.80892 19.8578 9.38233 19.5543 9.6987C19.143 10.1436 19.2605 10.1831 20.0929 9.88654C20.5923 9.71847 20.6021 9.71847 20.5041 9.90631C20.4454 10.0052 20.1418 10.3512 19.8187 10.6676C19.2703 11.2113 19.2409 11.2706 19.2409 11.7254C19.2409 12.4273 18.9079 13.8905 18.575 14.6913C17.958 16.194 16.636 17.7462 15.314 18.5272C13.4534 19.6246 10.9758 19.9014 8.88999 19.2588C8.19471 19.0413 7 18.4877 7 18.3888C7 18.3591 7.36233 18.3196 7.803 18.3097C8.72352 18.2899 9.64403 18.0329 10.4274 17.5781L10.9563 17.2618L10.3491 17.0541C9.48735 16.7576 8.71372 16.0754 8.51787 15.4328C8.45911 15.2252 8.4787 15.2153 9.02709 15.2153L9.59507 15.2054L9.11522 14.978C8.54725 14.6913 8.02823 14.2069 7.77362 13.7126C7.58756 13.3566 7.35254 12.457 7.42109 12.3878C7.44067 12.3581 7.64632 12.4174 7.88134 12.4965C8.55704 12.7437 8.64517 12.6844 8.25347 12.2691C7.51901 11.5178 7.29378 10.4006 7.64632 9.34279L7.81279 8.86824L8.45911 9.51085C9.78113 10.806 11.3382 11.5771 13.1204 11.8045L13.6101 11.8638Z" clip-rule="evenodd"/></svg>