<svg width="424" height="549" viewBox="0 0 424 549" fill="none" xmlns="http://www.w3.org/2000/svg">
<g clip-path="url(#clip0)">
<g clip-path="url(#clip1)">
<path d="M72.71 181.24C69.8782 193.099 71.542 205.586 77.38 216.29C82.38 225.53 86.91 240.24 93.07 246.67C93.07 246.67 90.71 261.05 107.54 268.61C107.54 268.61 93.37 289.95 107.54 307L94.54 321.74C90.48 327.87 87.75 339.62 90.54 346.4L92.78 356.56L212.71 335.55L87.31 105.44C87.31 105.44 86.5 115.79 85.47 123.03C82.7244 142.45 78.526 161.638 72.91 180.43L72.71 181.24Z" fill="#CC7B44"/>
<path d="M339.15 130.7C337.21 119.06 335.29 105.44 335.29 105.44L211.88 335.55L331.8 356.55L334.04 346.39C336.87 339.61 334.14 327.86 330.09 321.73L317.09 306.99C331.27 289.94 317.09 268.6 317.09 268.6C332.75 261.04 331.6 246.66 331.6 246.66C334.83 243.29 349.12 219.28 350.75 215.04C355.75 202.04 354.75 196.04 351.23 180.26C345.968 164.066 341.93 147.499 339.15 130.7V130.7Z" fill="#B56833"/>
<path d="M244.18 274.97V323.99L212.71 335.55L182.43 308.97V274.97H244.18Z" fill="#DDC8AC"/>
<path d="M212.71 275.03V335.55L169.23 319.25L180.33 319.58V275.03H212.71Z" fill="#EADDCA"/>
<path d="M319.76 149.69V204.05C319.76 208.75 315.47 213.37 314.91 217.92C314.91 218.14 314.86 218.34 314.83 218.56L308.98 234.39C303.421 249.418 294.674 263.064 283.34 274.39L248.18 296.55C247.05 296.97 245.9 297.37 244.75 297.75C234.418 301.202 223.603 302.991 212.71 303.05H212.36C200.072 303.063 187.881 300.882 176.36 296.61L138.6 273.85C128.088 263.334 119.975 250.667 114.82 236.72L114.74 236.49L107.88 217.91C107.32 213.35 105.03 208.7 105.03 204V149.69C105.03 146.87 105.133 144.077 105.34 141.31C107.07 117.086 116.607 94.0756 132.52 75.73C134.52 73.43 136.57 71.24 138.75 69.13C142.229 65.7104 145.937 62.533 149.85 59.62V59.62C155.105 55.6827 160.716 52.2445 166.61 49.35V49.35C168.61 48.35 170.61 47.43 172.73 46.58C185.29 41.3725 198.754 38.6947 212.35 38.7C212.52 38.6898 212.69 38.6898 212.86 38.7C226.553 38.7426 240.1 41.5133 252.71 46.85C254.56 47.64 256.37 48.45 258.16 49.34C268.691 54.5297 278.307 61.3996 286.63 69.68C287.17 70.21 287.7 70.75 288.24 71.3C289.52 72.63 290.77 73.98 291.98 75.37C308.08 93.7925 317.728 116.965 319.46 141.37C319.71 144.12 319.76 146.9 319.76 149.69Z" fill="#EADDCA"/>
<path d="M113.18 173.85C113.18 173.85 48.32 213.98 127.06 244.91L113.18 173.85Z" fill="#EADDCA"/>
<path d="M311.92 172.32C311.92 172.32 377.92 213.97 297.04 244.67L311.92 172.32Z" fill="#DDC8AC"/>
<path d="M319.98 149.55V203.86C319.98 208.56 315.7 213.16 315.14 217.7L314.83 218.5L308.98 234.33C303.421 249.358 294.674 263.004 283.34 274.33V274.33L248.18 296.49C247.06 296.92 245.94 297.32 244.81 297.7C234.479 301.245 223.632 303.053 212.71 303.05V303.05L212.87 38.76V38.6C215.69 38.6 218.47 38.73 221.24 38.96H221.34C232.136 39.8598 242.722 42.455 252.71 46.65C254.497 47.39 256.257 48.19 257.99 49.05C263.967 51.962 269.659 55.4271 274.99 59.4C279.101 62.4546 282.991 65.7963 286.63 69.4C287.21 69.98 287.8 70.56 288.37 71.15C289.557 72.3767 290.717 73.6333 291.85 74.92C308.183 93.4322 317.973 116.804 319.71 141.43C319.89 144.11 319.98 146.817 319.98 149.55Z" fill="#DDC8AC"/>
<path d="M214.74 208.65H197.69L214.74 220.65V208.65Z" fill="#DDC8AC"/>
<path d="M212.77 253.04V260.56L191.69 260.61L205.71 247.55L212.77 253.04Z" fill="#A00000"/>
<path d="M234.26 260.56H212.77L212.71 252.95L212.74 253.02L220.32 247.55L231.32 257.8L233.77 260.1L234.26 260.56Z" fill="#6D0000"/>
<path d="M157.48 242.23C149.19 244.72 140.3 239.57 138.88 231.03C137.76 224.34 141.79 218.52 162.36 222.03C197.42 227.93 173.53 237.4 157.48 242.23Z" fill="#FFA27D"/>
<path d="M266.71 242.23C275.01 244.72 283.89 239.57 285.32 231.03C286.43 224.34 282.4 218.52 261.84 222.03C226.71 227.93 250.63 237.4 266.71 242.23Z" fill="#E88867"/>
<path d="M212.71 1071.96V322.05C200.981 322.164 189.562 318.285 180.33 311.05L92.79 356.58C92.79 356.58 80.71 361.05 65.71 351.05C65.71 351.05 34.15 329.22 72.43 384.14C72.43 384.14 51.71 414.05 62.71 439.05C73.71 464.05 57.25 459.24 53.48 480.65C49.71 502.06 65.71 504.05 65.71 504.05C65.71 504.05 45.71 547.05 62.71 560.05C62.71 560.05 51.71 607.05 39.71 632.05C27.71 657.05 72.43 679.5 72.43 679.5C72.43 679.5 31.01 762.81 0.149999 987.43C-0.281821 990.535 0.254748 993.697 1.68648 996.485C3.11822 999.273 5.37538 1001.55 8.15 1003.01L72.41 1036.73C72.41 1036.73 114.41 1069.31 142.55 1058.18C170.69 1047.05 159.71 1068.88 212.71 1071.96Z" fill="#F4F0ED"/>
<path d="M211.71 1071.96V322.05C223.439 322.164 234.858 318.285 244.09 311.05L331.63 356.58C331.63 356.58 343.71 361.05 358.71 351.05C358.71 351.05 390.27 329.22 351.99 384.14C351.99 384.14 372.71 414.05 361.71 439.05C350.71 464.05 367.17 459.24 370.94 480.65C374.71 502.06 358.71 504.05 358.71 504.05C358.71 504.05 378.71 547.05 361.71 560.05C361.71 560.05 372.71 607.05 384.71 632.05C396.71 657.05 351.99 679.5 351.99 679.5C351.99 679.5 393.41 762.81 424.27 987.43C424.702 990.535 424.165 993.697 422.733 996.485C421.302 999.273 419.045 1001.55 416.27 1003.01L352.01 1036.73C352.01 1036.73 310.01 1069.31 281.87 1058.18C253.73 1047.05 264.71 1068.88 211.71 1071.96Z" fill="#E2D8D0"/>
<path d="M212.71 397.41C212.71 397.41 207.23 389.41 190.97 388.73L198.02 421.05L211.71 426.6L212.71 397.41Z" fill="#E2D8D0"/>
<path d="M198.02 421.08L216.71 510.26V419.13L198.02 421.08Z" fill="#E2D8D0"/>
<path d="M211.71 421.71C211.71 421.71 161.07 390.2 114.39 441.62L118.71 445.05C118.71 445.05 153.71 398.05 211.71 426.6V421.71Z" fill="#A00000"/>
<path d="M211.71 421.71C211.71 421.71 262.35 390.2 309.03 441.62L304.71 445.05C304.71 445.05 269.71 398.05 211.71 426.6V421.71Z" fill="#6D0000"/>
<path d="M216.71 529.17H133.46C129.14 529.17 125.55 533.17 125.22 538.46L123.71 563.05H216.39L216.71 529.17Z" fill="#A00000"/>
<path d="M211.71 529.05L290.96 529.2C295.29 529.2 298.87 533.27 299.18 538.51L300.71 563.14L212.02 562.96L211.71 529.05Z" fill="#6D0000"/>
<path d="M211.71 525.54L202.23 515.38L213.3 495.05L211.71 525.54Z" fill="#E2D8D0"/>
<path d="M272.18 529.17C272.18 529.17 264.02 511.24 281.71 514.05C299.4 516.86 308.71 514.05 309.03 531.05C309.47 554.61 334.17 556.9 294.71 570.05C255.71 583.05 255.65 549.3 272.18 529.17Z" fill="#6D0000"/>
<path d="M282.02 558.77C282.02 558.77 308.35 590.05 309.02 563.05C309.69 536.05 327.33 529.05 295.52 525.54C263.71 522.03 250.04 530.17 269.87 546.11C289.7 562.05 282.02 558.77 282.02 558.77Z" fill="#6D0000"/>
<path d="M272.53 230.28C272.53 230.28 257.88 248.28 262.84 246.63C265.22 245.85 261.63 246.55 272.53 230.28Z" fill="#6D0000"/>
<path d="M276.31 233.59C276.31 233.59 264.38 253.46 269.06 251.15C271.3 250.05 267.84 251.25 276.31 233.59Z" fill="#6D0000"/>
<path d="M127.71 130.99L187.84 157.56C187.84 157.56 213.57 161.26 127.71 130.99Z" fill="#60442D"/>
<path d="M294.42 130.99L234.29 157.56C234.29 157.56 208.52 161.26 294.42 130.99Z" fill="#513520"/>
<path d="M334.71 153.05L330.71 172.78L275.71 148.78C242.71 151.41 223.71 139.42 212.71 124.7V0.699997C224.64 3.12 243.89 11.26 253.07 15.33C300.48 29.69 334.33 63.51 341.01 94.91C346.22 119.4 334.71 153.05 334.71 153.05Z" fill="#B56833"/>
<path d="M212.71 0.689997V124.74C204.33 113.53 200.63 96.74 198.99 87.59L203.69 135.5L173.89 143.35C172.519 143.64 171.101 143.626 169.736 143.31C168.371 142.993 167.092 142.382 165.989 141.519C164.885 140.655 163.984 139.561 163.348 138.312C162.713 137.063 162.359 135.69 162.31 134.29L161.43 105.51C156.98 156.68 95.54 172.93 95.54 172.93C87.74 164.38 75.99 121.26 83.47 94.33C92.58 61.5 132.07 24.8 176.47 12.69L176.67 12.63L176.92 12.56H177.08L177.29 12.5C181.29 11.3 197.48 6.22 203.17 1.04C204.64 -0.319997 208.14 -0.240003 212.71 0.689997Z" fill="#CC7B44"/>
<path d="M188.16 63.64L213 138.79L212.94 94.09L188.16 63.64Z" fill="#CC7B44"/>
<path d="M312.29 157.09L277.66 154.39L274.43 136.19L312.29 157.09Z" fill="#B56833"/>
<path d="M101.56 338.88C101.56 338.88 133.62 363.88 127.67 398.94C121.72 434 186.41 321.71 101.56 338.88Z" fill="#CC7B44"/>
<path d="M322.71 338.88C322.71 338.88 290.65 363.88 296.6 398.94C302.55 434 237.84 321.71 322.71 338.88Z" fill="#B56833"/>
<path d="M120.71 333.55L113.79 333.21C112.4 333.42 107.22 336.35 106.7 337.66L105.01 341.93C105.01 341.93 93.88 342.62 84.69 336.05C70.69 326.05 88.04 357.46 88.04 357.46C88.04 357.46 92.27 363.54 110.33 347.46C128.69 331.08 142.55 340.46 142.55 340.46C142.55 340.46 164.71 291.05 120.71 333.55Z" fill="#A00000"/>
<path d="M302.71 333.55L309.64 333.21C311.03 333.42 316.2 336.35 316.72 337.66L318.41 341.93C318.41 341.93 329.54 342.62 338.73 336.05C352.73 326.05 335.38 357.46 335.38 357.46C335.38 357.46 331.16 363.54 313.1 347.46C294.73 331.08 280.88 340.46 280.88 340.46C280.88 340.46 258.71 291.05 302.71 333.55Z" fill="#6D0000"/>
<path d="M181.67 174.35L176.74 169.29L138.81 171.25" stroke="black" stroke-width="3" stroke-linejoin="round"/>
<path d="M161.71 205.05C169.994 205.05 176.71 198.334 176.71 190.05C176.71 181.766 169.994 175.05 161.71 175.05C153.426 175.05 146.71 181.766 146.71 190.05C146.71 198.334 153.426 205.05 161.71 205.05Z" fill="#93BEC1"/>
<path d="M138.66 198.5L132.76 199.6" stroke="black" stroke-width="2" stroke-miterlimit="10"/>
<path d="M240.76 174.35L245.69 169.29L283.61 171.25" stroke="black" stroke-width="3" stroke-linejoin="round"/>
<path d="M260.72 205.05C269.004 205.05 275.72 198.334 275.72 190.05C275.72 181.766 269.004 175.05 260.72 175.05C252.436 175.05 245.72 181.766 245.72 190.05C245.72 198.334 252.436 205.05 260.72 205.05Z" fill="#699696"/>
<path d="M283.77 198.5L289.67 199.6" stroke="black" stroke-width="2" stroke-miterlimit="10"/>
<path d="M140.3 202.55L135.11 205.55" stroke="black" stroke-width="2" stroke-miterlimit="10"/>
<path d="M283.11 202.83L288.3 205.83" stroke="black" stroke-width="2" stroke-miterlimit="10"/>
<path d="M161.71 175.05V181.41L149.33 181.58C149.33 181.58 152.71 175.05 161.71 175.05Z" fill="white"/>
<path d="M260.71 174.69V181.05L248.33 181.22C248.33 181.22 251.71 174.69 260.71 174.69Z" fill="white"/>
<path d="M162.86 207.38C151.94 212.7 155.71 226.05 151.33 225.29C148.48 224.79 150.71 221.05 151.82 218.29C152.641 215.883 152.676 213.278 151.92 210.85C150.92 206.85 149.46 204.5 150.29 203.2C150.644 202.686 151.149 202.296 151.735 202.082C152.321 201.869 152.959 201.844 153.56 202.01C157.05 202.94 166.23 205.01 170.41 202.3C170.574 202.188 170.772 202.14 170.969 202.164C171.166 202.189 171.347 202.285 171.477 202.434C171.608 202.583 171.679 202.775 171.678 202.974C171.677 203.172 171.603 203.363 171.47 203.51C170.25 204.76 169.71 204.05 162.86 207.38Z" fill="#A00000"/>
</g>
</g>
<defs>
<clipPath id="clip0">
<rect width="424" height="549" fill="white"/>
</clipPath>
<clipPath id="clip1">
<rect width="424.41" height="1072.05" fill="white"/>
</clipPath>
</defs>
</svg>
