<svg xmlns="http://www.w3.org/2000/svg" viewBox="0 0 424.41 1072.05"><defs><style>.cls-1{fill:#cc7b44}.cls-2{fill:#b56833}.cls-3{fill:#ddc8ac}.cls-4{fill:#eaddca}.cls-5{fill:#a00000}.cls-6{fill:#6d0000}.cls-7{fill:#ffa27d}.cls-8{fill:#e88867}.cls-9{fill:#f4f0ed}.cls-10{fill:#e2d8d0}.cls-11{fill:#60442d}.cls-12{fill:#513520}.cls-13,.cls-15{fill:none;stroke:#000}.cls-13{stroke-linejoin:round;stroke-width:3px}.cls-14{fill:#93bec1}.cls-15{stroke-miterlimit:10;stroke-width:2px}.cls-16{fill:#699696}.cls-17{fill:#fff}</style></defs><g id="Cheveux_arrières" data-name="Cheveux arrières"><path d="M219,333.19a49.29,49.29,0,0,0,4.67,35.05c5,9.24,9.53,23.95,15.69,30.38h0S237,413,253.83,420.56c0,0-14.17,21.34,0,38.39l-13,14.74c-4.06,6.13-6.79,17.88-4,24.66l2.24,10.16L359,487.5,233.6,257.39s-.81,10.35-1.84,17.59a392.21,392.21,0,0,1-12.56,57.4Z" class="cls-1" transform="translate(-146.29 -151.95)"/><path d="M485.44,282.65c-1.94-11.64-3.86-25.26-3.86-25.26L358.17,487.5l119.92,21,2.24-10.16c2.83-6.78.1-18.53-3.95-24.66l-13-14.74c14.18-17.05,0-38.39,0-38.39,15.66-7.56,14.51-21.94,14.51-21.94h0c3.23-3.37,17.52-27.38,19.15-31.62,5-13,4-19,.48-34.78h0A340.11,340.11,0,0,1,485.44,282.65Z" class="cls-2" transform="translate(-146.29 -151.95)"/></g><g id="Tête"><polygon points="244.18 274.97 244.18 323.99 212.71 335.55 182.43 308.97 182.43 274.97 244.18 274.97" class="cls-3"/><polygon points="212.71 275.03 212.71 335.55 169.23 319.25 180.33 319.58 180.33 275.03 212.71 275.03" class="cls-4"/><path d="M466.05,301.64V356c0,4.7-4.29,9.32-4.85,13.87h0c0,.22-.05.42-.08.64l-5.85,15.83a111,111,0,0,1-25.64,40h0l-35.16,22.16h0c-1.13.42-2.28.82-3.43,1.2A102.86,102.86,0,0,1,359,455h-.35a103.24,103.24,0,0,1-36-6.44L284.89,425.8a103.06,103.06,0,0,1-23.78-37.13l-.08-.23-6.86-18.58c-.56-4.56-2.85-9.21-2.85-13.91V301.64q0-4.23.31-8.38a112.29,112.29,0,0,1,27.18-65.58c2-2.3,4.05-4.49,6.23-6.6h0a106.89,106.89,0,0,1,11.1-9.51h0a105.53,105.53,0,0,1,16.76-10.27h0c2-1,4-1.92,6.12-2.77a103.34,103.34,0,0,1,39.62-7.88,4.26,4.26,0,0,1,.51,0A103.07,103.07,0,0,1,399,198.8c1.85.79,3.66,1.6,5.45,2.49a108.15,108.15,0,0,1,28.47,20.34c.54.53,1.07,1.07,1.61,1.62,1.28,1.33,2.53,2.68,3.74,4.07h0a112.39,112.39,0,0,1,27.48,66C466,296.07,466.05,298.85,466.05,301.64Z" class="cls-4" transform="translate(-146.29 -151.95)"/><path d="M259.47,325.8s-64.86,40.13,13.88,71.06Z" class="cls-4" transform="translate(-146.29 -151.95)"/><path d="M458.21,324.27s66,41.65-14.88,72.35Z" class="cls-3" transform="translate(-146.29 -151.95)"/><path d="M466.27,301.5v54.31c0,4.7-4.28,9.3-4.84,13.84v0l-.31.8-5.85,15.83a111,111,0,0,1-25.64,40h0l-35.16,22.16h0c-1.12.43-2.24.83-3.37,1.21A98.82,98.82,0,0,1,359,455v0l.16-264.29v-.16c2.82,0,5.6.13,8.37.36h.1A103.13,103.13,0,0,1,399,198.6q2.68,1.11,5.28,2.4a106.54,106.54,0,0,1,17,10.35,108.57,108.57,0,0,1,11.64,10c.58.58,1.17,1.16,1.74,1.75q1.78,1.84,3.48,3.77h0A112.49,112.49,0,0,1,466,293.38Q466.27,297.4,466.27,301.5Z" class="cls-3" transform="translate(-146.29 -151.95)"/><polygon points="214.74 208.65 197.69 208.65 214.74 220.65 214.74 208.65" class="cls-3"/><polygon points="212.77 253.04 212.77 260.56 191.69 260.61 205.71 247.55 212.77 253.04" class="cls-5"/><polygon points="234.26 260.56 212.77 260.56 212.71 252.95 212.74 253.02 220.32 247.55 231.32 257.8 233.77 260.1 234.26 260.56" class="cls-6"/><path d="M303.77,394.18c-8.29,2.49-17.18-2.66-18.6-11.2-1.12-6.69,2.91-12.51,23.48-9C343.71,379.88,319.82,389.35,303.77,394.18Z" class="cls-7" transform="translate(-146.29 -151.95)"/><path d="M413,394.18c8.3,2.49,17.18-2.66,18.61-11.2,1.11-6.69-2.92-12.51-23.48-9C373,379.88,396.92,389.35,413,394.18Z" class="cls-8" transform="translate(-146.29 -151.95)"/></g><g id="Robe"><path d="M359,1223.91V474A51.68,51.68,0,0,1,326.62,463l-87.54,45.53S227,513,212,503c0,0-31.56-21.83,6.72,33.09,0,0-20.72,29.91-9.72,54.91s-5.46,20.19-9.23,41.6S212,656,212,656s-20,43-3,56c0,0-11,47-23,72s32.72,47.45,32.72,47.45-41.42,83.31-72.28,307.93a15.23,15.23,0,0,0,8,15.58l64.26,33.72s42,32.58,70.14,21.45S306,1220.83,359,1223.91Z" class="cls-9" transform="translate(-146.29 -151.95)"/><path d="M358,1223.91V474A51.68,51.68,0,0,0,390.38,463l87.54,45.53S490,513,505,503c0,0,31.56-21.83-6.72,33.09,0,0,20.72,29.91,9.72,54.91s5.46,20.19,9.23,41.6S505,656,505,656s20,43,3,56c0,0,11,47,23,72s-32.72,47.45-32.72,47.45,41.42,83.31,72.28,307.93a15.23,15.23,0,0,1-8,15.58l-64.26,33.72s-42,32.58-70.14,21.45S411,1220.83,358,1223.91Z" class="cls-10" transform="translate(-146.29 -151.95)"/><path d="M359,549.36s-5.48-8-21.74-8.68L344.31,573,358,578.55Z" class="cls-10" transform="translate(-146.29 -151.95)"/><polygon points="198.02 421.08 216.71 510.26 216.71 419.13 198.02 421.08" class="cls-10"/><path d="M358,573.66s-50.64-31.51-97.32,19.91L265,597s35-47,93-18.45Z" class="cls-5" transform="translate(-146.29 -151.95)"/><path d="M358,573.66s50.64-31.51,97.32,19.91L451,597s-35-47-93-18.45Z" class="cls-6" transform="translate(-146.29 -151.95)"/><path d="M363,681.12H279.75c-4.32,0-7.91,4-8.24,9.29L270,715h92.68Z" class="cls-5" transform="translate(-146.29 -151.95)"/><path d="M358,681l79.25.15c4.33,0,7.91,4.07,8.22,9.31L447,715.09l-88.69-.18Z" class="cls-6" transform="translate(-146.29 -151.95)"/><polygon points="212.02 565.05 202.23 579.38 214.74 646.05 212.02 565.05" class="cls-10"/><polygon points="211.71 525.54 202.23 515.38 213.3 495.05 211.71 525.54" class="cls-10"/><path d="M361,1140.77l-48.39,69.75S335,1223,359,1224Z" class="cls-10" transform="translate(-146.29 -151.95)"/><path d="M418.47,681.12S410.31,663.19,428,666s27,0,27.32,17c.44,23.56,25.14,25.85-14.32,39C402,735,401.94,701.25,418.47,681.12Z" class="cls-6" transform="translate(-146.29 -151.95)"/><path d="M428.31,710.72s26.33,31.28,27,4.28,18.31-34-13.5-37.51-45.48,4.63-25.65,20.57S428.31,710.72,428.31,710.72Z" class="cls-6" transform="translate(-146.29 -151.95)"/></g><g id="Sang"><path d="M418.82,382.23s-14.65,18-9.69,16.35C411.51,397.8,407.92,398.5,418.82,382.23Z" class="cls-6" transform="translate(-146.29 -151.95)"/><path d="M422.6,385.54s-11.93,19.87-7.25,17.56C417.59,402,414.13,403.2,422.6,385.54Z" class="cls-6" transform="translate(-146.29 -151.95)"/></g><g id="Sourcils"><path d="M274,282.94l60.13,26.57S359.86,313.21,274,282.94Z" class="cls-11" transform="translate(-146.29 -151.95)"/><path d="M440.71,282.94l-60.13,26.57S354.81,313.21,440.71,282.94Z" class="cls-12" transform="translate(-146.29 -151.95)"/></g><g id="Cheveux"><path d="M481,305l-4,19.73-55-24c-33,2.63-52-9.36-63-24.08v-124c11.93,2.42,31.18,10.56,40.36,14.63,47.41,14.36,81.26,48.18,87.94,79.58C492.51,271.35,481,305,481,305Z" class="cls-2" transform="translate(-146.29 -151.95)"/><path d="M359,152.64V276.69c-8.38-11.21-12.08-28-13.72-37.15l4.7,47.91-29.8,7.85a9.6,9.6,0,0,1-11.58-9.06l-.88-28.78c-4.45,51.17-65.89,67.42-65.89,67.42-7.8-8.55-19.55-51.67-12.07-78.6,9.11-32.83,48.6-69.53,93-81.64l.2-.06.25-.07.16,0,.21-.06c4-1.2,20.19-6.28,25.88-11.46C350.93,151.63,354.43,151.71,359,152.64Z" class="cls-1" transform="translate(-146.29 -151.95)"/><polygon points="188.16 63.64 213 138.79 212.94 94.09 188.16 63.64" class="cls-1"/><polygon points="312.29 157.09 277.66 154.39 274.43 136.19 312.29 157.09" class="cls-2"/><path d="M247.85,490.83s32.06,25,26.11,60.06S332.7,473.66,247.85,490.83Z" class="cls-1" transform="translate(-146.29 -151.95)"/><path d="M469,490.83s-32.06,25-26.11,60.06S384.13,473.66,469,490.83Z" class="cls-2" transform="translate(-146.29 -151.95)"/></g><g id="Calque_9" data-name="Calque 9"><path d="M267,485.5l-6.92-.34c-1.39.21-6.57,3.14-7.09,4.45l-1.69,4.27s-11.13.69-20.32-5.88c-14-10,3.35,21.41,3.35,21.41s4.23,6.08,22.29-10c18.36-16.38,32.22-7,32.22-7S311,443,267,485.5Z" class="cls-5" transform="translate(-146.29 -151.95)"/><path d="M449,485.5l6.93-.34c1.39.21,6.56,3.14,7.08,4.45l1.69,4.27s11.13.69,20.32-5.88c14-10-3.35,21.41-3.35,21.41s-4.22,6.08-22.28-10c-18.37-16.38-32.22-7-32.22-7S405,443,449,485.5Z" class="cls-6" transform="translate(-146.29 -151.95)"/></g><g id="Expression_du_visage" data-name="Expression du visage"><polyline points="181.67 174.35 176.74 169.29 138.81 171.25" class="cls-13"/><circle cx="161.71" cy="190.05" r="15" class="cls-14"/><line x1="138.66" x2="132.76" y1="198.5" y2="199.6" class="cls-15"/><polyline points="240.76 174.35 245.69 169.29 283.61 171.25" class="cls-13"/><circle cx="260.72" cy="190.05" r="15" class="cls-16"/><line x1="283.77" x2="289.67" y1="198.5" y2="199.6" class="cls-15"/><line x1="140.3" x2="135.11" y1="202.55" y2="205.55" class="cls-15"/><line x1="283.11" x2="288.3" y1="202.83" y2="205.83" class="cls-15"/><path d="M308,327v6.36l-12.38.17S299,327,308,327Z" class="cls-17" transform="translate(-146.29 -151.95)"/><path d="M407,326.64V333l-12.38.17S398,326.64,407,326.64Z" class="cls-17" transform="translate(-146.29 -151.95)"/><path d="M309.15,359.33c-10.92,5.32-7.15,18.67-11.53,17.91-2.85-.5-.62-4.24.49-7a12,12,0,0,0,.1-7.44c-1-4-2.46-6.35-1.63-7.65a3,3,0,0,1,3.27-1.19c3.49.93,12.67,3,16.85.29a.81.81,0,0,1,1.06,1.21C316.54,356.71,316,356,309.15,359.33Z" class="cls-5" transform="translate(-146.29 -151.95)"/></g><g id="Mains"><path d="M205.41,860.91l-8.92-23.37a10.82,10.82,0,0,1-.41-13.4l5.33-22S194,773,235.45,780.6l-.17,13.4s6.72,8,5.72,27-15.46-4.25-15.46-4.25Z" class="cls-4" transform="translate(-146.29 -151.95)"/><path d="M509.05,860.91,518,837.54a10.82,10.82,0,0,0,.41-13.4l-5.32-22s7.4-29.13-34-21.53l.18,13.4s-6.73,8-5.73,27,15.46-4.25,15.46-4.25Z" class="cls-3" transform="translate(-146.29 -151.95)"/></g></svg>