<svg xmlns="http://www.w3.org/2000/svg" viewBox="0 0 467 1197.51"><defs><style>.cls-1{fill:#efefef;}.cls-2{fill:#e8e8e8;}.cls-3{fill:#ddd;}.cls-4{fill:#efd9c7;}.cls-5{fill:#f2cab6;}.cls-6{fill:#dbc0a9;}.cls-7{fill:#c98447;}.cls-8{fill:#fff;}.cls-9{fill:none;stroke:#1d1d1b;stroke-linejoin:round;stroke-width:3px;}.cls-10{fill:#b26e3f;}.cls-11{fill:#93733a;}.cls-12{fill:#7a582b;}.cls-13{fill:#7a5d2e;}.cls-14{fill:#684923;}.cls-15{fill:#82602a;}.cls-16{fill:#705022;}</style></defs><g id="Cheveux_arrières" data-name="Cheveux arrières"><path class="cls-1" d="M354.58,59.16l3.42.64V478H273l-23.86-10.1A14.9,14.9,0,0,1,240,454.13H221.62l-32.17-26.9h16.08L193,418l13-8-21.17-34.62L215.49,367,142,303h9.91L142,293.28,170,290l-8-11,24-26-23-52,16.28-10.43a134.93,134.93,0,0,1,49.3-19.29L247,168l-16.7-64.91S248,31,293,31V45.69a11.34,11.34,0,0,0,3.42,8.12L313,70l15.2-7.32A42.77,42.77,0,0,1,354.58,59.16Z" transform="translate(-142 -31)"/><path class="cls-2" d="M609,166c0,6.34-2.66,11.85-6.52,16.49C607.55,172.08,609,166,609,166Z" transform="translate(-142 -31)"/><path class="cls-3" d="M601,254.48s-15.82,10.07-39.42,74.8c0,0-5.6,11.72-45.6,31.72l22.69,12.11-25.72,17L537,385l-24,29-16,1-14.45,12.23L488,431l-9.53,20.4L462.72,462,454.55,478H358V59.8L386,65l16-.82a31,31,0,0,1,16,3.48L434,76s38-5,69,13c0,0,2,38,14,66l44.6-4.45L596,164c-.83-.22-22-5.9-34.37,4.95C549,180,574,201,574,201s18.36-6.3,28.48-18.51c-7.75,15.93-24,42-56.6,72C546.56,254.22,579.27,242.08,601,254.48Z" transform="translate(-142 -31)"/></g><g id="Tête"><rect class="cls-4" x="180.62" y="488.4" width="36.38" height="34"/><path class="cls-4" d="M256.76,373.55l5.1,74.35c2.33,17.61,10.95,37.94,24.67,49.23.57.47,1.16.94,1.75,1.4L322.62,521l.06.05a106.67,106.67,0,0,0,35.9,6.23H359V260.1h-.33a106.48,106.48,0,0,0-39.62,7.62c-2.12.82-4.12,1.68-6.12,2.68a106.19,106.19,0,0,0-16.86,10,108.56,108.56,0,0,0-11.1,9.2l-.07.06a40.89,40.89,0,0,0-9.17,12.94l-10.1,22.14A100.93,100.93,0,0,0,256.76,373.55Z" transform="translate(-142 -31)"/><rect class="cls-5" x="216.25" y="488.34" width="36.28" height="34"/><rect class="cls-6" x="216.25" y="488.4" width="36.38" height="34"/><path class="cls-6" d="M452.22,323.4a99.82,99.82,0,0,1,10,54.08l-7.17,74.64c-1.92,14.89-9.18,32.7-20.77,42.23-.51.42-1,.83-1.55,1.23L394.63,521l-.06.05a106.67,106.67,0,0,1-35.9,6.23h-.42V260.1h.33a106.48,106.48,0,0,1,39.62,7.62c2.12.82,4.12,1.68,6.12,2.68a106.19,106.19,0,0,1,16.86,10,108.56,108.56,0,0,1,11.1,9.2l.07.06a44.81,44.81,0,0,1,9.33,12.68Z" transform="translate(-142 -31)"/><polygon class="cls-6" points="219.03 410.02 201.98 410.02 219.03 418.4 219.03 410.02"/><polygon class="cls-6" points="219.19 449.93 189.98 449.97 217.19 455.97 219.19 449.93"/><path class="cls-4" d="M156.38,367a1.21,1.21,0,0,0-.07,2.27C174,376.28,231.82,397.83,248,423c2.22,3.47,5.93,5,9.42,3.81l5.22-.51L259.82,397l-11.4-3.57a13.93,13.93,0,0,0-4.42-1.95c-9.47-2.27-46.35-9.58-79.87-24.05a4.93,4.93,0,0,0-1.92-.4Z" transform="translate(-142 -31)"/><path class="cls-6" d="M560.77,367a1.21,1.21,0,0,1,.07,2.27c-17.73,7.06-75.51,28.61-91.65,53.79-2.22,3.47-5.93,5-9.42,3.81l-5.22-.51L457.33,397l11.39-3.57a14.08,14.08,0,0,1,4.43-1.95c9.47-2.27,46.35-9.58,79.87-24.05a4.89,4.89,0,0,1,1.92-.4Z" transform="translate(-142 -31)"/></g><g id="Cheveux_avants" data-name="Cheveux avants"><path class="cls-1" d="M358,241.91v23.33l-26-9.75A97.63,97.63,0,0,1,358,241.91Z" transform="translate(-142 -31)"/><path class="cls-3" d="M443.07,297.09,358,265.24V241.91C416.29,222.92,442.71,296.08,443.07,297.09Z" transform="translate(-142 -31)"/></g><g id="Visage"><polygon class="cls-7" points="162.53 393.65 155.08 374.23 164.54 374.23 169 373 176 376.23 170.55 393.65 162.53 393.65"/><polygon class="cls-8" points="159.01 384.48 155 374.74 162 374 163 382 159.01 384.48"/><path class="cls-9" d="M293,407l15.44-3.54a6.9,6.9,0,0,1,8,3.74l6,15.14" transform="translate(-142 -31)"/><polygon class="cls-10" points="270.92 394.65 278.37 375.23 268.91 375.23 264.45 374 257.45 377.23 262.9 394.65 270.92 394.65"/><polygon class="cls-8" points="259.72 384.48 257.45 377.23 264.72 373.24 264.92 381.79 259.72 384.48"/><path class="cls-9" d="M424.45,408,409,404.46a6.9,6.9,0,0,0-8,3.74l-6,15.14" transform="translate(-142 -31)"/><path class="cls-1" d="M293,384.38h29.62L311,372.22a1.91,1.91,0,0,0-2.58-.18Z" transform="translate(-142 -31)"/><path class="cls-3" d="M421.62,384H392l11.6-12.16a1.91,1.91,0,0,1,2.58-.18Z" transform="translate(-142 -31)"/></g><g id="Vêtements"><rect class="cls-4" x="156" y="520" width="60" height="184"/><rect class="cls-6" x="216" y="520" width="61" height="184"/><polygon class="cls-11" points="217 721.85 217 661.34 210.51 647.55 210.51 586.28 198.81 555.64 139 544 90.09 567.4 116 726 109 770.28 218 830.28 217 721.85"/><path class="cls-11" d="M283,573l-30.5-2.5L219.43,607,160.87,732.69a18.07,18.07,0,0,0,.55,16.34L238,888l11-75-27-68.5L301,623Z" transform="translate(-142 -31)"/><path class="cls-12" d="M232.6,613.25l35.7-73.88-16.21-10L305,509.49l17.62,11v37.84L309,589.91,305,688c0,11.71-7.67,21.68-18.07,23.48L244.6,729Z" transform="translate(-142 -31)"/><polygon class="cls-11" points="216 828.28 204.59 1021.89 120.6 1021.89 109.14 769.39 109.58 766.62 216 828.28"/><polygon class="cls-13" points="216 722.85 216 662.34 222.49 648.55 222.49 587.28 234.19 556.64 294 545 342.91 568.4 317 727 322 769.28 217 831.28 216 722.85"/><polygon class="cls-13" points="191.89 784.55 217 795.47 217.62 789.49 191.89 784.55"/><path class="cls-13" d="M434,574l30.5-2.5L497.57,608l58.56,125.72a18.07,18.07,0,0,1-.55,16.34L479,889l-13-75,29-68.5L416,624Z" transform="translate(-142 -31)"/><path class="cls-14" d="M484.4,614.25l-35.7-73.88,16.21-10L412,510.49l-17.62,11v37.84L408,590.91,412,689c0,11.71,7.67,21.68,18.07,23.48L472.4,730Z" transform="translate(-142 -31)"/><polygon class="cls-13" points="322 767.28 312.4 1022.89 228.41 1022.89 217 829.28 322 767.28"/><path class="cls-15" d="M264,1091c2.88-34.88-26-53-26-53l8-2,16.6,16.89s4.4-25.74,41.9-25.74v201.36H281.37a11.46,11.46,0,0,1-6.79-2.23l-8.17-6a4.85,4.85,0,0,1-1.39-6.22l3.8-7a12.56,12.56,0,0,1,3.9-4.33l4.89-3.37v-15.31S256,1188,264,1091Z" transform="translate(-142 -31)"/><path class="cls-15" d="M343.5,1091c2.74,33.18,2,54.55-.13,68.31a10.27,10.27,0,0,1-1.25,3.57l-12.31,21.31.08,0v7l13.26,24.09a3.17,3.17,0,0,1-.9,4.09l-8.85,6.5a13.29,13.29,0,0,1-7.86,2.57H303V1027.15h1.5c36.12.67,40.4,25.72,40.4,25.72L361.5,1036l8,2S340.62,1056.12,343.5,1091Z" transform="translate(-142 -31)"/><path class="cls-16" d="M451.5,1091c-2.88-34.88,26-53,26-53l-8-2-16.6,16.89s-4.4-25.74-41.9-25.74v201.36h23.13a11.46,11.46,0,0,0,6.79-2.23l8.17-6a4.85,4.85,0,0,0,1.39-6.22l-3.8-7a12.56,12.56,0,0,0-3.9-4.33l-4.89-3.37v-15.31S459.5,1188,451.5,1091Z" transform="translate(-142 -31)"/><path class="cls-16" d="M372,1091c-2.74,33.18-2,54.55.13,68.31a10.27,10.27,0,0,0,1.25,3.57l12.31,21.31-.08,0v7l-13.26,24.09a3.17,3.17,0,0,0,.9,4.09l8.85,6.5a13.29,13.29,0,0,0,7.86,2.57H412.5V1027.15H411c-36.12.67-40.4,25.72-40.4,25.72L354,1036l-8,2S374.88,1056.12,372,1091Z" transform="translate(-142 -31)"/><polygon class="cls-4" points="107 782 96 857 115.43 908.04 110.36 796.19 107 782"/><polygon class="cls-6" points="337 858 316.71 908.04 320.72 793.85 324 783 337 858"/><path class="cls-12" d="M358,630.5v5H332a2.5,2.5,0,0,1,0-5Z" transform="translate(-142 -31)"/><path class="cls-12" d="M358,653v5H332.5a2.5,2.5,0,0,1,0-5Z" transform="translate(-142 -31)"/><path class="cls-12" d="M358,676v5H332.5a2.5,2.5,0,0,1,0-5Z" transform="translate(-142 -31)"/><path class="cls-11" d="M238,886s-2,31-27,34c0,0,30-8,8-68Z" transform="translate(-142 -31)"/><path class="cls-13" d="M479,888s2,31,27,34c0,0-30-8-8-68Z" transform="translate(-142 -31)"/><path class="cls-14" d="M366.5,633a2.5,2.5,0,0,1-2.5,2.5h-6v-5h6A2.5,2.5,0,0,1,366.5,633Z" transform="translate(-142 -31)"/><path class="cls-14" d="M367,655.5a2.5,2.5,0,0,1-2.5,2.5H358v-5h6.5A2.5,2.5,0,0,1,367,655.5Z" transform="translate(-142 -31)"/><path class="cls-14" d="M367,678.5a2.5,2.5,0,0,1-2.5,2.5H358v-5h6.5A2.5,2.5,0,0,1,367,678.5Z" transform="translate(-142 -31)"/><polygon class="cls-11" points="113.58 823.02 105.72 817.09 120.6 1021.89 122.01 1005.13 113.58 823.02"/><polygon class="cls-13" points="319.15 823.02 327.01 817.09 312.13 1021.89 310.72 1005.13 319.15 823.02"/><polygon class="cls-15" points="116 726 216 767.98 216 789.81 109.58 766.62 116 726"/><polygon class="cls-16" points="317 727 216 767.98 216 789.81 322 769.28 317 727"/><polygon class="cls-13" points="218 830.28 193.83 815.43 218 821.68 218 830.28"/></g></svg>