<svg xmlns="http://www.w3.org/2000/svg" width="467" height="704" fill="none" viewBox="0 0 467 704"><g clip-path="url(#clip0)"><g clip-path="url(#clip1)"><path fill="#EFEFEF" d="M212.58 28.16L216 28.8V447H131L107.14 436.9C104.428 435.763 102.112 433.849 100.486 431.398C98.8593 428.948 97.9944 426.071 98 423.13H79.62L47.45 396.23H63.53L51 387L64 379L42.83 344.38L73.49 336L0 272H9.91L0 262.28L28 259L20 248L44 222L21 170L37.28 159.57C52.2783 149.948 69.0341 143.391 86.58 140.28L105 137L88.3 72.09C88.3 72.09 106 0 151 0V14.69C150.999 16.2032 151.302 17.7012 151.889 19.0957C152.476 20.4903 153.337 21.7532 154.42 22.81L171 39L186.2 31.68C194.395 27.7311 203.636 26.498 212.58 28.16V28.16Z"/><path fill="#E8E8E8" d="M467 135C467 141.34 464.34 146.85 460.48 151.49C465.55 141.08 467 135 467 135Z"/><path fill="#DDD" d="M459 223.48C459 223.48 443.18 233.55 419.58 298.28C419.58 298.28 413.98 310 373.98 330L396.67 342.11L370.95 359.11L395 354L371 383L355 384L340.55 396.23L346 400L336.47 420.4L320.72 431L312.55 447H216V28.8L244 34L260 33.18C265.549 32.8851 271.075 34.087 276 36.66L292 45C292 45 330 40 361 58C361 58 363 96 375 124L419.6 119.55L454 133C453.17 132.78 432 127.1 419.63 137.95C407 149 432 170 432 170C432 170 450.36 163.7 460.48 151.49C452.73 167.42 436.48 193.49 403.88 223.49C404.56 223.22 437.27 211.08 459 223.48Z"/><path fill="#EFD9C7" d="M217 488.4H180.62V522.4H217V488.4Z"/><path fill="#EFD9C7" d="M114.76 342.55L119.86 416.9C122.19 434.51 130.81 454.84 144.53 466.13C145.1 466.6 145.69 467.07 146.28 467.53L180.62 490L180.68 490.05C192.201 494.17 204.345 496.278 216.58 496.28H217V229.1H216.67C203.098 229.092 189.65 231.678 177.05 236.72C174.93 237.54 172.93 238.4 170.93 239.4C165.014 242.206 159.37 245.554 154.07 249.4C150.17 252.217 146.462 255.291 142.97 258.6L142.9 258.66C139.028 262.334 135.913 266.73 133.73 271.6L123.63 293.74C116.659 309.019 113.61 325.795 114.76 342.55V342.55Z"/><path fill="#F2CAB6" d="M252.53 488.34H216.25V522.34H252.53V488.34Z"/><path fill="#DBC0A9" d="M252.63 488.4H216.25V522.4H252.63V488.4Z"/><path fill="#DBC0A9" d="M310.22 292.4C318.552 309.135 322.016 327.873 320.22 346.48L313.05 421.12C311.13 436.01 303.87 453.82 292.28 463.35C291.77 463.77 291.28 464.18 290.73 464.58L252.63 490L252.57 490.05C241.049 494.17 228.905 496.278 216.67 496.28H216.25V229.1H216.58C230.152 229.092 243.6 231.678 256.2 236.72C258.32 237.54 260.32 238.4 262.32 239.4C268.236 242.206 273.88 245.554 279.18 249.4C283.08 252.217 286.788 255.291 290.28 258.6L290.35 258.66C294.184 262.303 297.343 266.596 299.68 271.34L310.22 292.4Z"/><path fill="#DBC0A9" d="M219.03 410.02H201.98L219.03 418.4V410.02Z"/><path fill="#DBC0A9" d="M219.19 449.93L189.98 449.97L217.19 455.97L219.19 449.93Z"/><path fill="#EFD9C7" d="M14.38 336C14.1452 336.078 13.94 336.227 13.7921 336.425C13.6443 336.624 13.5609 336.863 13.5533 337.111C13.5457 337.358 13.6141 337.602 13.7495 337.809C13.8848 338.017 14.0804 338.177 14.31 338.27C32 345.28 89.82 366.83 106 392C108.22 395.47 111.93 397 115.42 395.81L120.64 395.3L117.82 366L106.42 362.43C105.072 361.528 103.576 360.868 102 360.48C92.53 358.21 55.65 350.9 22.13 336.43C21.5233 336.169 20.8704 336.033 20.21 336.03L14.38 336Z"/><path fill="#DBC0A9" d="M418.77 336C419.005 336.078 419.21 336.227 419.358 336.425C419.506 336.624 419.589 336.863 419.597 337.111C419.604 337.358 419.536 337.602 419.401 337.809C419.265 338.017 419.07 338.177 418.84 338.27C401.11 345.33 343.33 366.88 327.19 392.06C324.97 395.53 321.26 397.06 317.77 395.87L312.55 395.36L315.33 366L326.72 362.43C328.073 361.529 329.572 360.869 331.15 360.48C340.62 358.21 377.5 350.9 411.02 336.43C411.627 336.168 412.28 336.032 412.94 336.03L418.77 336Z"/><path fill="#EFEFEF" d="M216 210.91V234.24L190 224.49C197.933 218.68 206.699 214.101 216 210.91V210.91Z"/><path fill="#DDD" d="M301.07 266.09L216 234.24V210.91C274.29 191.92 300.71 265.08 301.07 266.09Z"/><path fill="#C98447" d="M162.53 393.65L155.08 374.23H164.54L169 373L176 376.23L170.55 393.65H162.53Z"/><path fill="#fff" d="M159.01 384.48L155 374.74L162 374L163 382L159.01 384.48Z"/><path stroke="#1D1D1B" stroke-linejoin="round" stroke-width="3" d="M151 376L166.44 372.46C168 372.05 169.655 372.199 171.117 372.883C172.578 373.566 173.754 374.74 174.44 376.2L180.44 391.34"/><path fill="#B26E3F" d="M270.92 394.65L278.37 375.23H268.91L264.45 374L257.45 377.23L262.9 394.65H270.92Z"/><path fill="#fff" d="M259.72 384.48L257.45 377.23L264.72 373.24L264.92 381.79L259.72 384.48Z"/><path stroke="#1D1D1B" stroke-linejoin="round" stroke-width="3" d="M282.45 377L267 373.46C265.44 373.05 263.785 373.199 262.323 373.883C260.862 374.566 259.686 375.74 259 377.2L253 392.34"/><path fill="#EFEFEF" d="M151 353.38H180.62L169 341.22C168.671 340.872 168.223 340.66 167.745 340.627C167.267 340.594 166.794 340.741 166.42 341.04L151 353.38Z"/><path fill="#DDD" d="M279.62 353H250L261.6 340.84C261.929 340.492 262.377 340.28 262.855 340.247C263.333 340.214 263.806 340.361 264.18 340.66L279.62 353Z"/><path fill="#EFD9C7" d="M216 520H156V704H216V520Z"/><path fill="#DBC0A9" d="M277 520H216V704H277V520Z"/><path fill="#93733A" d="M217 721.85V661.34L210.51 647.55V586.28L198.81 555.64L139 544L90.0901 567.4L116 726L109 770.28L218 830.28L217 721.85Z"/><path fill="#93733A" d="M141 542L110.5 539.5L77.43 576L18.87 701.69C17.6709 704.265 17.0958 707.087 17.1914 709.926C17.2869 712.765 18.0505 715.541 19.42 718.03L96.0001 857L107 782L80 713.5L159 592L141 542Z"/><path fill="#7A582B" d="M90.6001 582.25L126.3 508.37L110.09 498.37L163 478.49L180.62 489.49V527.33L167 558.91L163 657C163 668.71 155.33 678.68 144.93 680.48L102.6 698L90.6001 582.25Z"/><path fill="#7A5D2E" d="M216 722.85V662.34L222.49 648.55V587.28L234.19 556.64L294 545L342.91 568.4L317 727L322 769.28L217 831.28L216 722.85Z"/><path fill="#7A5D2E" d="M292 543L322.5 540.5L355.57 577L414.13 702.72C415.329 705.295 415.904 708.117 415.809 710.956C415.713 713.795 414.95 716.571 413.58 719.06L337 858L324 783L353 714.5L274 593L292 543Z"/><path fill="#684923" d="M342.4 583.25L306.7 509.37L322.91 499.37L270 479.49L252.38 490.49V528.33L266 559.91L270 658C270 669.71 277.67 679.68 288.07 681.48L330.4 699L342.4 583.25Z"/><path fill="#7A582B" d="M216 599.5V604.5H190C189.337 604.5 188.701 604.237 188.232 603.768C187.763 603.299 187.5 602.663 187.5 602C187.5 601.337 187.763 600.701 188.232 600.232C188.701 599.763 189.337 599.5 190 599.5H216Z"/><path fill="#7A582B" d="M216 622V627H190.5C189.837 627 189.201 626.737 188.732 626.268C188.263 625.799 188 625.163 188 624.5C188 623.837 188.263 623.201 188.732 622.732C189.201 622.263 189.837 622 190.5 622H216Z"/><path fill="#7A582B" d="M216 645V650H190.5C189.837 650 189.201 649.737 188.732 649.268C188.263 648.799 188 648.163 188 647.5C188 646.837 188.263 646.201 188.732 645.732C189.201 645.263 189.837 645 190.5 645H216Z"/><path fill="#684923" d="M224.5 602C224.5 602.663 224.237 603.299 223.768 603.768C223.299 604.237 222.663 604.5 222 604.5H216V599.5H222C222.663 599.5 223.299 599.763 223.768 600.232C224.237 600.701 224.5 601.337 224.5 602Z"/><path fill="#684923" d="M225 624.5C225 625.163 224.737 625.799 224.268 626.268C223.799 626.737 223.163 627 222.5 627H216V622H222.5C223.163 622 223.799 622.263 224.268 622.732C224.737 623.201 225 623.837 225 624.5Z"/><path fill="#684923" d="M225 647.5C225 648.163 224.737 648.799 224.268 649.268C223.799 649.737 223.163 650 222.5 650H216V645H222.5C223.163 645 223.799 645.263 224.268 645.732C224.737 646.201 225 646.837 225 647.5V647.5Z"/></g></g><defs><clipPath id="clip0"><rect width="467" height="704" fill="#fff"/></clipPath><clipPath id="clip1"><rect width="467" height="1197.51" fill="#fff"/></clipPath></defs></svg>