<svg xmlns="http://www.w3.org/2000/svg" width="416" height="617" fill="none" viewBox="0 0 416 617"><g clip-path="url(#clip0)"><g clip-path="url(#clip1)"><path fill="#D0DAE2" d="M72 552.57L70 570.72H0L8 462.72C8 462.72 14 427.72 103 373.32L148 389.95L72 552.57Z"/><path fill="#ADBCC4" d="M250 373.72C250 373.72 292.95 401.84 322 413.72C344 422.72 376 497.72 376 497.72L338 562.72L290.49 502.72L230 382.72L250 373.72Z"/><path fill="#000" d="M413 560.59L385.34 511.42V497.72H376L338 562.72L344.49 572.72L290.49 676.83L294.14 757.61L318.62 703.72L411.12 584.98C413.8 581.551 415.408 577.408 415.742 573.069C416.077 568.73 415.123 564.389 413 560.59V560.59Z"/><path fill="#282828" d="M70 570.72L2 550.72L-7 561.72L0 568.72L-2.27 599.83C-2.82981 607.627 -1.66909 615.451 1.13 622.75L30 742.72L67.32 819.72L69.32 723.72L64 612.44L70 570.72Z"/><path fill="#000" d="M274 557.72L266 586.72C309 661.72 299.49 706.44 299.49 706.44L175 786.1V382.72L230 364.72C230 364.72 242 363.72 250 373.72L241.08 378.86L287 446.49C307.28 471.77 310.85 502.93 295.12 531.26C284.37 550.54 274 557.72 274 557.72Z"/><path fill="#282828" d="M177 382.72V786.1L56.51 706.44C56.51 706.44 45 661.72 88 586.72L80 557.72C80 557.72 69.63 550.54 58.93 531.26C43.2 502.93 46.77 471.77 67.05 446.49L125 364.72"/><path fill="#515456" d="M177 396.72L131.19 384.43C129.271 383.897 127.235 383.971 125.36 384.643C123.485 385.314 121.864 386.55 120.72 388.18C108.13 406.18 74.5 469.82 113.07 597.68C115.079 604.073 115.362 610.883 113.89 617.42C113.408 619.369 113.541 621.419 114.27 623.29C120.07 638.06 146.18 699.96 177 701.72V396.72Z"/><path fill="#3A3D3F" d="M177 396.72L222.81 384.43C224.729 383.897 226.766 383.971 228.64 384.643C230.515 385.314 232.136 386.55 233.28 388.18C245.87 406.18 279.5 469.82 240.93 597.68C238.921 604.073 238.638 610.883 240.11 617.42C240.592 619.369 240.459 621.419 239.73 623.29C233.93 638.06 207.82 699.96 177 701.72V396.72Z"/><path fill="#515456" d="M132.05 1069.47C132.05 682.23 88 586.72 88 586.72L81.37 598.87C81.37 598.87 121 705.02 121 1066.37L132.05 1069.47Z"/><path fill="#3A3D3F" d="M222.37 1069.47C222.37 682.23 266.42 586.72 266.42 586.72L273.05 598.87C273.05 598.87 233.42 705.02 233.42 1066.37L222.37 1069.47Z"/><path fill="#3A3D3F" d="M177 530.72L163.64 542.9H177V530.72Z"/><path fill="#56352B" d="M73.38 483.72L62.38 461.72L65.7 450.61C50.02 443.51 65.7 419.21 65.7 419.21L58.89 399.29L65.7 380.91C52 351.1 58.89 335.72 58.89 335.72C39.41 312.72 54.89 288.23 54.89 288.23C54.89 288.23 41.38 274.72 45.4 263.72C49.42 252.72 51.87 229.23 51.87 229.23L141 282.48L141.38 356.2L124.76 365.59C124.76 365.59 121.38 375.72 113.38 380.72C105.38 385.72 113.38 393.72 113.38 393.72L100.38 414.72C100.38 414.72 108.38 427.72 96.38 444.72C92.9149 449.508 90.7881 455.133 90.2187 461.015C89.6492 466.898 90.6576 472.826 93.14 478.19L85.38 484.72C85.38 484.72 90 524.72 117 520.72C117 520.72 36 572.72 73.38 483.72Z"/><path fill="#351D19" d="M281 245.72L270.11 286.26C269.533 288.295 268.519 290.18 267.137 291.781C265.755 293.382 264.039 294.662 262.11 295.53C255.1 298.72 240.33 305.12 210 327.72L205 257.72L281 245.72Z"/><path fill="#DBACA1" d="M212.47 322.14V356.14L230 364.72L177 382.72L140.72 356.14V322.14H212.47Z"/><path fill="#EDCDC8" d="M177 382.72L125 364.72L140.62 356.2V322.2H177V356.2V382.72Z"/><path fill="#EDCDC8" d="M284.05 164.86V219.17C284.05 223.806 283.767 228.438 283.2 233.04V233.04C283.2 233.26 283.15 233.46 283.12 233.68L265.56 281.23C265.41 281.47 265.25 281.7 265.08 281.94L212.48 323.72C189.311 332.293 163.839 332.293 140.67 323.72L88.09 281.72L70.09 233.05C69.5237 228.435 69.2399 223.79 69.24 219.14V164.86C69.24 162.04 69.3434 159.247 69.55 156.48C71.2799 132.256 80.8167 109.246 96.73 90.9C98.73 88.6 100.78 86.41 102.96 84.3C106.439 80.8804 110.147 77.703 114.06 74.79V74.79C119.315 70.8527 124.926 67.4144 130.82 64.52V64.52C132.82 63.52 134.82 62.6 136.94 61.75C149.5 56.5425 162.964 53.8647 176.56 53.87C176.73 53.8598 176.9 53.8598 177.07 53.87C190.79 53.902 204.365 56.6728 217 62.02C218.85 62.81 220.66 63.62 222.45 64.51C232.981 69.6997 242.597 76.5696 250.92 84.85C251.46 85.38 251.99 85.92 252.53 86.47C253.81 87.8 255.06 89.15 256.27 90.54C272.37 108.963 282.018 132.135 283.75 156.54C284 159.29 284.05 162.07 284.05 164.86Z"/><path fill="#EDCDC8" d="M80 174.27C80 174.27 1.26001 204.01 80 254.18V174.27Z"/><path fill="#DBACA1" d="M273 174.56C273 174.56 351.74 204.19 273 254.18V174.56Z"/><path fill="#DBACA1" d="M284.27 164.72V219.03C284.274 223.656 283.994 228.278 283.43 232.87V232.87L283.12 233.67L265.56 281.22L265.4 281.67L265.09 281.91L212.48 323.72C201.151 328.04 189.124 330.236 177 330.2L177.19 53.72C180.01 53.72 182.79 53.85 185.56 54.08H185.66C196.448 54.9989 207.024 57.6109 217 61.82C218.787 62.56 220.547 63.36 222.28 64.22C228.257 67.132 233.949 70.5971 239.28 74.57C243.391 77.6246 247.281 80.9663 250.92 84.57C251.5 85.15 252.09 85.73 252.66 86.32C253.847 87.5467 255.007 88.8033 256.14 90.09C272.473 108.602 282.263 131.974 284 156.6C284.18 159.28 284.27 161.987 284.27 164.72Z"/><path fill="#DBACA1" d="M179.03 241.82H161.98L179.03 250.2V241.82Z"/><path fill="#DBACA1" d="M170 270.72L155.98 283.78L179 283.72V277.72L170 270.72Z"/><path fill="#56352B" d="M127.39 213.72L118.56 193.06H129.78H141L132.16 213.72H127.39Z"/><path fill="#351D19" d="M227 213.72L235.84 193.06H224.62H213.39L222.23 213.72H227Z"/><path fill="#fff" d="M218 203.72L213.39 193.76L222 192.72L218 203.72Z"/><path fill="#fff" d="M123 203.72L126.38 193.76L119.27 194.73L123 203.72Z"/><path stroke="#000" stroke-linecap="square" stroke-linejoin="round" stroke-width="3" d="M108.5 196.22C108.5 196.22 136.5 186.22 147.89 197.37"/><path stroke="#000" stroke-linecap="square" stroke-linejoin="round" stroke-width="3" d="M245.89 196.22C245.89 196.22 217.89 186.22 206.5 197.37"/><path fill="#56352B" d="M88.59 181.51L79 213.72L90 248.72L49 200.72C42.4 195.91 33.46 182.08 37 174.72C44.45 159.23 39.16 109.4 63 61.72C73 41.72 109 6.72 109 6.72C109 6.72 128 -13.28 191 15.72C229.7 33.53 204.5 65.51 204.5 65.51L153.66 57.86L111.66 80.75C98.66 89.05 94.66 103.25 94.26 118.65L88.59 181.51Z"/><path fill="#56352B" d="M156 170.72L151.83 177.37C151.83 177.37 121.83 172.61 107.4 174.66C92.97 176.71 124 166.72 124 166.72L156 170.72Z"/><path fill="#351D19" d="M198.59 170.72L202.76 177.37C202.76 177.37 232.76 172.61 247.18 174.66C261.6 176.71 230.59 166.72 230.59 166.72L198.59 170.72Z"/><path fill="#351D19" d="M204.5 65.51L251 84.3L264 144.72L274 169.72L275 209.72L290 183.72L302 124.72L282 54.72L210 9.72H177L177.03 61.38L204.5 65.51Z"/></g></g><defs><clipPath id="clip0"><rect width="416" height="617" fill="#fff"/></clipPath><clipPath id="clip1"><rect width="422.79" height="1149.04" fill="#fff" transform="translate(-7)"/></clipPath></defs></svg>