<svg xmlns="http://www.w3.org/2000/svg" viewBox="0 0 422.79 1149.04"><defs><style>.cls-1{fill:#d0dae2}.cls-2{fill:#adbcc4}.cls-3{fill:#282828}.cls-4{fill:#515456}.cls-5{fill:#3a3d3f}.cls-6{fill:#2d2f30}.cls-7{fill:#56352b}.cls-8{fill:#351d19}.cls-9{fill:#dbaca1}.cls-10{fill:#edcdc8}.cls-11{fill:#fff}.cls-12{fill:none;stroke:#000;stroke-linecap:square;stroke-linejoin:round;stroke-width:3px}</style></defs><g id="Peau"><path d="M254,628.85,252,647H182l8-108s6-35,95-89.4l45,16.63Z" class="cls-1" transform="translate(-175 -76.28)"/><path d="M432,450s42.95,28.12,72,40c22,9,54,84,54,84l-38,65-47.51-60L412,459Z" class="cls-2" transform="translate(-175 -76.28)"/></g><g id="Vêtements"><path d="M595,636.87,567.34,587.7V574H558l-38,65,6.49,10-54,104.11,3.65,80.78L500.62,780l92.5-118.74A22.1,22.1,0,0,0,595,636.87Z" transform="translate(-175 -76.28)"/><path d="M252,647l-68-20-9,11,7,7-2.27,31.11a53.34,53.34,0,0,0,3.4,22.92L212,819,249.32,896l2-96L246,688.72Z" class="cls-3" transform="translate(-175 -76.28)"/><path d="M456,634l-8,29c43,75,33.49,119.72,33.49,119.72L357,862.38V459l55-18s12-1,20,9l-8.92,5.14L469,522.77c20.28,25.28,23.85,56.44,8.12,84.77C466.37,626.82,456,634,456,634Z" transform="translate(-175 -76.28)"/><path d="M359,459V862.38L238.51,782.72S227,738,270,663l-8-29s-10.37-7.18-21.07-26.46c-15.73-28.33-12.16-59.49,8.12-84.77L307,441" class="cls-3" transform="translate(-175 -76.28)"/><path d="M359,860.38,338,1177H270.11S261,992,238,780Z" class="cls-3" transform="translate(-175 -76.28)"/><path d="M359,859.38,380,1178h67.89S459,990,482,778Z" transform="translate(-175 -76.28)"/><path d="M359,473l-45.81-12.29a9.64,9.64,0,0,0-10.47,3.75c-12.59,18-46.22,81.64-7.65,209.5a38,38,0,0,1,.82,19.74,9.73,9.73,0,0,0,.38,5.87c5.8,14.77,31.91,76.67,62.73,78.43Z" class="cls-4" transform="translate(-175 -76.28)"/><path d="M359,473l45.81-12.29a9.64,9.64,0,0,1,10.47,3.75c12.59,18,46.22,81.64,7.65,209.5a38,38,0,0,0-.82,19.74,9.73,9.73,0,0,1-.38,5.87c-5.8,14.77-31.91,76.67-62.73,78.43Z" class="cls-5" transform="translate(-175 -76.28)"/><path d="M314.05,1145.75C314.05,758.51,270,663,270,663l-6.63,12.15S303,781.3,303,1142.65Z" class="cls-4" transform="translate(-175 -76.28)"/><path d="M404.37,1145.75c0-387.24,44.05-482.75,44.05-482.75l6.63,12.15s-39.63,106.15-39.63,467.5Z" class="cls-5" transform="translate(-175 -76.28)"/><path d="M256.06,971.15,283,961h46.55l22.1,10.15-3,45.49s-37.35,18.64-89,0Z" class="cls-5" transform="translate(-175 -76.28)"/><path d="M463.65,971.15,434.71,961H388.16L366,971l3.08,45.64s39.35,18.64,91,0Z" class="cls-6" transform="translate(-175 -76.28)"/><path d="M444.08,1225.32c14-22,2-37,2-37,16-81,4.86-62.76,4.86-62.76s-58.18,31.53-73,19.14.16,43.62.16,43.62-13,16,3,36.68Z" class="cls-5" transform="translate(-175 -76.28)"/><path d="M274,1225c-14-22-2-37-2-37-16-81-4.85-62.76-4.85-62.76s58.18,31.53,73,19.14S340,1188,340,1188s13,16-3,36.68Z" class="cls-4" transform="translate(-175 -76.28)"/><polygon points="184 530.72 170.64 542.9 184 542.9 184 530.72" class="cls-5"/><polygon points="184 786.1 150.57 770.72 184 777.02 184 786.1"/></g><g id="Cheveux_arrières" data-name="Cheveux arrières"><path d="M255.38,560l-11-22,3.32-11.11c-15.68-7.1,0-31.4,0-31.4l-6.81-19.92,6.81-18.38C234,427.38,240.89,412,240.89,412c-19.48-23-4-47.49-4-47.49S223.38,351,227.4,340s6.47-34.49,6.47-34.49L323,358.76l.38,73.72-16.62,9.39S303.38,452,295.38,457s0,13,0,13l-13,21s8,13-4,30a33.26,33.26,0,0,0-3.24,33.47L267.38,561S272,601,299,597C299,597,218,649,255.38,560Z" class="cls-7" transform="translate(-175 -76.28)"/><path d="M463,322l-10.89,40.54a14.5,14.5,0,0,1-8,9.27C437.1,375,422.33,381.4,392,404l-5-70Z" class="cls-8" transform="translate(-175 -76.28)"/></g><g id="Tête"><polygon points="219.47 322.14 219.47 356.14 237 364.72 184 382.72 147.72 356.14 147.72 322.14 219.47 322.14" class="cls-9"/><polygon points="184 382.72 132 364.72 147.62 356.2 147.62 322.2 184 322.2 184 356.2 184 382.72" class="cls-10"/><path d="M466.05,241.14v54.31a113.4,113.4,0,0,1-.85,13.87h0c0,.22-.05.42-.08.64l-17.56,47.55c-.15.24-.31.47-.48.71v0L394.48,400h0a103.46,103.46,0,0,1-71.81,0l-52.58-42-18-48.67a114.18,114.18,0,0,1-.85-13.91V241.14q0-4.23.31-8.38a112.29,112.29,0,0,1,27.18-65.58c2-2.3,4.05-4.49,6.23-6.6h0a106.89,106.89,0,0,1,11.1-9.51h0a105.53,105.53,0,0,1,16.76-10.27h0c2-1,4-1.92,6.12-2.77a103.34,103.34,0,0,1,39.62-7.88,4.26,4.26,0,0,1,.51,0A103.07,103.07,0,0,1,399,138.3c1.85.79,3.66,1.6,5.45,2.49a108.15,108.15,0,0,1,28.47,20.34c.54.53,1.07,1.07,1.61,1.62,1.28,1.33,2.53,2.68,3.74,4.07h0a112.39,112.39,0,0,1,27.48,66C466,235.57,466.05,238.35,466.05,241.14Z" class="cls-10" transform="translate(-175 -76.28)"/><path d="M262,250.55s-78.74,29.74,0,79.91Z" class="cls-10" transform="translate(-175 -76.28)"/><path d="M455,250.84s78.74,29.63,0,79.62Z" class="cls-9" transform="translate(-175 -76.28)"/><path d="M466.27,241v54.31a112.79,112.79,0,0,1-.84,13.84v0l-.31.8-17.56,47.55-.16.45v0l-.31.24v0L394.48,400h0A98.75,98.75,0,0,1,359,406.48L359.19,130c2.82,0,5.6.13,8.37.36h.1A103.13,103.13,0,0,1,399,138.1q2.68,1.11,5.28,2.4a106.54,106.54,0,0,1,17,10.35,108.57,108.57,0,0,1,11.64,10c.58.58,1.17,1.16,1.74,1.75q1.78,1.84,3.48,3.77h0A112.49,112.49,0,0,1,466,232.88Q466.27,236.9,466.27,241Z" class="cls-9" transform="translate(-175 -76.28)"/><polygon points="186.03 241.82 168.98 241.82 186.03 250.2 186.03 241.82" class="cls-9"/><polygon points="177 270.72 162.98 283.78 186 283.72 186 277.72 177 270.72" class="cls-9"/></g><g id="Yeux"><polygon points="134.39 213.72 125.56 193.06 136.78 193.06 148 193.06 139.16 213.72 134.39 213.72" class="cls-7"/><polygon points="234 213.72 242.84 193.06 231.62 193.06 220.39 193.06 229.23 213.72 234 213.72" class="cls-8"/><polygon points="225 203.72 220.39 193.76 229 192.72 225 203.72" class="cls-11"/><polygon points="130 203.72 133.38 193.76 126.27 194.73 130 203.72" class="cls-11"/><path d="M290.5,272.5s28-10,39.39,1.15" class="cls-12" transform="translate(-175 -76.28)"/><path d="M427.89,272.5s-28-10-39.39,1.15" class="cls-12" transform="translate(-175 -76.28)"/></g><g id="Cheveux"><path d="M270.59,257.79,261,290l11,35-41-48c-6.6-4.81-15.54-18.64-12-26,7.45-15.49,2.16-65.32,26-113,10-20,46-55,46-55s19-20,82,9c38.7,17.81,13.5,49.79,13.5,49.79l-50.84-7.65-42,22.89c-13,8.3-17,22.5-17.4,37.9Z" class="cls-7" transform="translate(-175 -76.28)"/><path d="M338,247l-4.17,6.65s-30-4.76-44.43-2.71S306,243,306,243Z" class="cls-7" transform="translate(-175 -76.28)"/><path d="M380.59,247l4.17,6.65s30-4.76,44.42-2.71S412.59,243,412.59,243Z" class="cls-8" transform="translate(-175 -76.28)"/><polygon points="211.5 65.51 258 84.3 271 144.72 281 169.72 282 209.72 297 183.72 309 124.72 289 54.72 217 9.72 184 9.72 184.03 61.38 211.5 65.51" class="cls-8"/></g></svg>