<svg xmlns="http://www.w3.org/2000/svg" viewBox="0 0 374.18 1153"><defs><style>.cls-1{fill:#f4dbd0}.cls-2{fill:#e2c5ba}.cls-3{fill:#592616}.cls-4{fill:#fff}.cls-5{fill:#441d12}.cls-6{fill:#d31a1a}.cls-7{fill:#b20f0f}.cls-8{fill:#a81a13}.cls-9{fill:#891010}.cls-10{fill:#353535}.cls-11{fill:#282828}.cls-12{fill:#ededed}.cls-13{fill:#232323}.cls-14{fill:#344075}.cls-15{fill:#253360}.cls-16{fill:#491f13}.cls-17{fill:#172030}.cls-18{fill:#1f2b42}</style></defs><g id="Tête"><rect width="37.75" height="36" x="145.99" y="381.68" class="cls-1"/><path d="M266.36,383.35l-14.72-84.09c-1.19-17.76,6-35.54,13.21-51.73l10.69-23.92a42.13,42.13,0,0,1,9.31-13.23l.07-.06a111.3,111.3,0,0,1,11.52-9.74A109.92,109.92,0,0,1,313.93,190c2.08-1.06,4.15-2,6.35-2.83a108.53,108.53,0,0,1,41.12-8.07h.34V462.06h-.44a108.82,108.82,0,0,1-37.25-6.59l-.06-.06-4.6-2.56C293.56,438.47,271.53,412.91,266.36,383.35Z" class="cls-1" transform="translate(-178 -72)"/><rect width="37.75" height="36" x="182.96" y="381.68" class="cls-2"/><path d="M458.36,382.93c-5.37,29.36-27.43,54.67-53.16,68.9l-6.49,3.58-.06.06a108.82,108.82,0,0,1-37.25,6.59H361V179.14h.34a108.48,108.48,0,0,1,41.11,8.07,68.42,68.42,0,0,1,6.35,2.83,109.56,109.56,0,0,1,17.5,10.54,111.3,111.3,0,0,1,11.52,9.74h0a46,46,0,0,1,9.55,13.07l11.14,22.77c8.66,17.71,16.28,37.55,14.42,57.26Z" class="cls-2" transform="translate(-178 -72)"/><polygon points="185.85 296.65 168.16 296.65 185.85 305.53 185.85 296.65" class="cls-2"/></g><g id="Visage"><path d="M323.16,328.46,322,331.29l-7.65,18.25h-4.77l-4.32-10.32-3.29-7.83-.47-1.13-.71-1.68.56-.24,10.62-1.92Z" class="cls-3" transform="translate(-178 -72)"/><polygon points="127.16 267.43 130.54 257.27 131 256.11 123.43 258.26 127.16 267.43" class="cls-4"/><path d="M326.4,332.65l-2.79,1.12a9.9,9.9,0,0,0-1.64-2.48,9.77,9.77,0,0,0-3.63-2.61c-3.3-1.38-7.44-1.06-12.31.94-.31.12-.62.25-.93.4-1.12.5-2.17,1-3.16,1.37h0c-8.54,3.61-12.47,4.3-12.65,4.34l-.5-3s3.82-.7,12-4.14l.56-.24c.82-.34,1.68-.71,2.58-1.12,6.07-2.71,11.33-3.16,15.63-1.35A13.24,13.24,0,0,1,326.4,332.65Z" transform="translate(-178 -72)"/><path d="M397,329.48l1.19,2.83,7.65,18.25h4.77l4.32-10.32,3.29-7.83.47-1.13.71-1.68-.56-.24-10.62-1.92Z" class="cls-5" transform="translate(-178 -72)"/><polygon points="223.16 267.43 226.51 256.11 220.18 260.31 223.16 267.43" class="cls-4"/><path d="M393.75,333.67l2.79,1.12a9.9,9.9,0,0,1,1.64-2.48,9.77,9.77,0,0,1,3.63-2.61c3.3-1.38,7.44-1.06,12.31.94.31.12.62.25.93.4,1.12.5,2.17,1,3.16,1.37h0c8.54,3.61,12.47,4.3,12.65,4.34l.5-3s-3.82-.7-12-4.14l-.56-.24c-.82-.34-1.68-.71-2.58-1.12-6.07-2.71-11.33-3.16-15.63-1.35A13.24,13.24,0,0,0,393.75,333.67Z" transform="translate(-178 -72)"/><path d="M286.11,312.09c-.3.49.35,1,.74.66,3.53-3.53,13.36-8.85,38.15-1C340.94,316.81,301,287.34,286.11,312.09Z" class="cls-3" transform="translate(-178 -72)"/><polygon points="182.82 336.85 182.82 344.52 161.74 344.57 175.76 331.25 182.82 336.85" class="cls-6"/><polygon points="204.31 344.52 182.82 344.52 182.76 336.76 182.79 336.83 190.37 331.25 201.37 341.71 203.82 344.05 204.31 344.52" class="cls-7"/></g><g id="Cheveux"><path d="M502.72,369S487,379.13,474,399.53s-29,15.31-29,15.31c62.65-185-21.74-207.69-85-202.27V157.75l88-4.12,43,112.24s-7,21.42,11.72,54.73S502.72,369,502.72,369Z" class="cls-5" transform="translate(-178 -72)"/><path d="M360,157.75v54.82a248,248,0,0,0-58,12.48c-12,23.47-20.45,21.38-20.45,21.38C285,273,261,261.79,265,279.13c2.9,12.56-5,27.55-7,41.84-1.54,11,5.29,49.09,7.65,58.33,0,0-64.18,16.44-64.42-62.78,0,0-27.76-25,0-61.32,0,0-19.23-65.86,50.77-92.39Z" class="cls-3" transform="translate(-178 -72)"/><path d="M445.74,301.93s80.94,23.43,6.64,81Z" class="cls-2" transform="translate(-178 -72)"/><path d="M360,77.37V326.53c-32.75-15.42-67-42.79-98.61-89.12C149.16,73.18,327.11,88.21,327.11,88.21A324.4,324.4,0,0,1,360,77.37Z" class="cls-8" transform="translate(-178 -72)"/><path d="M545.53,291.54a84.94,84.94,0,0,1-54.88,45.81c-28.94,7.87-78,14-130.67-10.82V77.37C380.07,72,390.14,72,390.14,72c56.67,9.68,101.5,59.25,114.5,75a18.88,18.88,0,0,1,4.24,10.67l3,41.56C558.24,231.18,556.93,267.08,545.53,291.54Z" class="cls-9" transform="translate(-178 -72)"/><path d="M360,326.53s-37.12-17.68-58.55-41.11L360,305.47Z" class="cls-9" transform="translate(-178 -72)"/></g><g id="Collants"><polygon points="132.94 1088.73 110.47 841.97 182.84 841.97 169.72 1133.58 132.94 1088.73" class="cls-10"/><polygon points="230.01 1088.73 252.47 841.97 180.1 841.97 193.23 1133.58 230.01 1088.73" class="cls-11"/></g><g id="Vêtements"><polygon points="182.96 417.68 145.99 399 145.99 461 182.96 488.62 182.96 417.68" class="cls-4"/><polygon points="182.99 417.68 221 397.94 221 460.18 182.99 488.62 182.99 417.68" class="cls-12"/><path d="M361,715.89v412.18s-59,11.22-75,3.06l7-103.06-3-.65L284,1124s-5-14.28-17-15.3l-18.45-5.38a10.72,10.72,0,0,1-7.35-12.67L261,947.46Z" class="cls-13" transform="translate(-178 -72)"/><path d="M360,715.89v412.18s59,11.22,75,3.06L424.11,992.69a1.54,1.54,0,0,1,1.19-1.63h0a1.52,1.52,0,0,1,1.83,1.39L437,1124s5-14.28,17-15.3l18.45-5.38a10.72,10.72,0,0,0,7.35-12.67L460,947.46,396.15,728.17Z" transform="translate(-178 -72)"/><path d="M257,645.44s34.42,50.78,28,59.18c-53,69.38-43,327.53-43,327.53l45,22.45c59,77.55,76-140.89,76-140.89v-349L324,471l-23.23,18.68L292.11,507s-11.46,26.52-56.27,52.48a61,61,0,0,0-17.53,15.27L195,604.62l-17,15.31,18,7.14-9.61,24a6.83,6.83,0,0,0,3.31,8.69l21.19,10.18,3,51.83c.65,9.92,7,23.29,14.14,30l102.67,88.73V784.27l-53.18-63V678.89l16.6,6.78-19.66-58.88Z" class="cls-14" transform="translate(-178 -72)"/><path d="M526,627.07l18-7.14-17-15.31L503.68,574.7a61.14,61.14,0,0,0-17.53-15.27c-44.81-26-56.28-52.47-56.28-52.47l-8.64-17.29L399,469.94l-38,90.68V932.07s2.58-17,6.42-40.64c4.93-30.42,11.93-71.91,18.2-102.6,5.31-26,10.08-44.22,12.63-41.53,1.8,1.9,3.94,9.14,6.32,20.23L391.3,784.27v56.27L414,820.93c12.42,78.62,27.69,196,39,229.59l27-18.37s4.62-154.29-15.53-254.84L494,751.81c7.14-6.75,13.49-20.13,14.14-30l3-51.83,21.19-10.19a6.81,6.81,0,0,0,3.31-8.68Zm-89,77.55c-2.82-3.34,1.48-14,7.49-25.44v36.45A69.84,69.84,0,0,0,437,704.62Z" class="cls-15" transform="translate(-178 -72)"/><path d="M363,675.12S353,647.48,300,624l63,93.92Z" class="cls-15" transform="translate(-178 -72)"/><path d="M361,511s23-13.54,0-21.71l-2.27,2.75L359,509.4Z" class="cls-7" transform="translate(-178 -72)"/><path d="M361,511s-23-13.54,0-21.71Z" class="cls-6" transform="translate(-178 -72)"/><path d="M353.89,495.1S316,455.65,318,486.26s5.78,53.34,35.89,16Z" class="cls-6" transform="translate(-178 -72)"/><path d="M369,495.1s37.89-39.45,35.89-8.84-5.78,53.34-35.89,16Z" class="cls-7" transform="translate(-178 -72)"/></g><g id="Détails_en_plus" data-name="Détails en plus"><path d="M347.73,1161.42c-15.26,8.75-28.7,2.27-35.08-2.1a3.18,3.18,0,0,0-4.85,1.79c-2.65,9.31-12.95,28.06-52.65,22.13a6.1,6.1,0,0,0-5.61,2.15c-4.39,5.3-11.65,17.16,4.85,23.25,21.65,8,53.11,12.3,53.11,12.3l18.27-18.2.35,20.41,8.92,1.72a7.37,7.37,0,0,0,7.84-3.71c3-5.38,8.34-14.83,15-25.63C368.31,1178.71,347.73,1161.42,347.73,1161.42Z" class="cls-13" transform="translate(-178 -72)"/><path d="M371.21,1161.42c15.27,8.75,28.71,2.27,35.08-2.1a3.18,3.18,0,0,1,4.85,1.79c2.66,9.31,13,28.06,52.65,22.13a6.12,6.12,0,0,1,5.62,2.15c4.39,5.3,11.65,17.16-4.85,23.25-21.65,8-53.12,12.3-53.12,12.3l-18.27-18.2-.34,20.41-8.93,1.72a7.38,7.38,0,0,1-7.84-3.71c-3-5.38-8.34-14.83-15-25.63C350.64,1178.71,371.21,1161.42,371.21,1161.42Z" transform="translate(-178 -72)"/><path d="M361,759.94V1196h-4.64a4.19,4.19,0,0,1-4.11-4.27V784.57c-2.52-11.5-12.55-19.32-23.16-18.64-9.31.61-17.49,7.63-20.09,17.48a9.52,9.52,0,0,1-18.87-.19l-.13-.85c0-17.66,18-36.37,40-36.37A41.35,41.35,0,0,1,361,759.94Z" class="cls-3" transform="translate(-178 -72)"/><path d="M370.75,784.57v407.16a4.19,4.19,0,0,1-4.11,4.27H361V759.94A37.45,37.45,0,0,1,370.75,784.57Z" class="cls-16" transform="translate(-178 -72)"/><path d="M360,898.49V1177h10.26a3.21,3.21,0,0,0,3.07-2.63L433,898.49s-13.1,9.79-27.57,0C405.47,898.49,380,914.81,360,898.49Z" class="cls-17" transform="translate(-178 -72)"/><path d="M361,898.49V1177h-8.26a3.21,3.21,0,0,1-3.07-2.63L288,898.49s13.1,9.79,27.57,0C315.53,898.49,341,914.81,361,898.49Z" class="cls-18" transform="translate(-178 -72)"/><path d="M391.3,784.27v56.27l-18.1,49.29a4.51,4.51,0,0,1-6.72,2.27L361,888.49v-79.9l24.62-19.76Z" class="cls-9" transform="translate(-178 -72)"/><polygon points="183 736.59 183 816.49 172.78 809.75 166.86 788.27 152.69 768.54 152.69 712.27 183 736.59" class="cls-8"/></g></svg>