<svg xmlns="http://www.w3.org/2000/svg" width="374" height="617" fill="none" viewBox="0 0 374 617"><g clip-path="url(#clip0)"><g clip-path="url(#clip1)"><path fill="#F4DBD0" d="M183.74 381.68H145.99V417.68H183.74V381.68Z"/><path fill="#F4DBD0" d="M88.36 311.35L73.64 227.26C72.45 209.5 79.64 191.72 86.85 175.53L97.54 151.61C99.7596 146.64 102.921 142.147 106.85 138.38L106.92 138.32C110.535 134.817 114.384 131.562 118.44 128.58C123.929 124.518 129.784 120.976 135.93 118C138.01 116.94 140.08 116 142.28 115.17C155.332 109.834 169.299 107.093 183.4 107.1H183.74V390.06H183.3C170.594 390.055 157.987 387.825 146.05 383.47L145.99 383.41L141.39 380.85C115.56 366.47 93.53 340.91 88.36 311.35Z"/><path fill="#E2C5BA" d="M220.71 381.68H182.96V417.68H220.71V381.68Z"/><path fill="#E2C5BA" d="M280.36 310.93C274.99 340.29 252.93 365.6 227.2 379.83L220.71 383.41L220.65 383.47C208.713 387.825 196.106 390.055 183.4 390.06H183V107.14H183.34C197.438 107.133 211.401 109.874 224.45 115.21C226.613 116.045 228.733 116.99 230.8 118.04C236.949 121.001 242.808 124.529 248.3 128.58C252.356 131.562 256.205 134.817 259.82 138.32V138.32C263.751 142.078 266.984 146.503 269.37 151.39L280.51 174.16C289.17 191.87 296.79 211.71 294.93 231.42L280.36 310.93Z"/><path fill="#E2C5BA" d="M185.85 296.65H168.16L185.85 305.53V296.65Z"/><path fill="#592616" d="M145.16 256.46L144 259.29L136.35 277.54H131.58L127.26 267.22L123.97 259.39L123.5 258.26L122.79 256.58L123.35 256.34L133.97 254.42L145.16 256.46Z"/><path fill="#fff" d="M127.16 267.43L130.54 257.27L131 256.11L123.43 258.26L127.16 267.43Z"/><path fill="#000" d="M148.4 260.65L145.61 261.77C145.191 260.865 144.638 260.029 143.97 259.29C142.978 258.151 141.735 257.258 140.34 256.68C137.04 255.3 132.9 255.62 128.03 257.62C127.72 257.74 127.41 257.87 127.1 258.02C125.98 258.52 124.93 259.02 123.94 259.39C115.4 263 111.47 263.69 111.29 263.73L110.79 260.73C110.79 260.73 114.61 260.03 122.79 256.59L123.35 256.35C124.17 256.01 125.03 255.64 125.93 255.23C132 252.52 137.26 252.07 141.56 253.88C144.608 255.199 147.05 257.615 148.4 260.65V260.65Z"/><path fill="#441D12" d="M219 257.48L220.19 260.31L227.84 278.56H232.61L236.93 268.24L240.22 260.41L240.69 259.28L241.4 257.6L240.84 257.36L230.22 255.44L219 257.48Z"/><path fill="#fff" d="M223.16 267.43L226.51 256.11L220.18 260.31L223.16 267.43Z"/><path fill="#000" d="M215.75 261.67L218.54 262.79C218.959 261.886 219.512 261.049 220.18 260.31C221.172 259.171 222.415 258.278 223.81 257.7C227.11 256.32 231.25 256.64 236.12 258.64C236.43 258.76 236.74 258.89 237.05 259.04C238.17 259.54 239.22 260.04 240.21 260.41C248.75 264.02 252.68 264.71 252.86 264.75L253.36 261.75C253.36 261.75 249.54 261.05 241.36 257.61L240.8 257.37C239.98 257.03 239.12 256.66 238.22 256.25C232.15 253.54 226.89 253.09 222.59 254.9C219.542 256.219 217.1 258.635 215.75 261.67Z"/><path fill="#592616" d="M108.11 240.09C107.81 240.58 108.46 241.09 108.85 240.75C112.38 237.22 122.21 231.9 147 239.75C162.94 244.81 123 215.34 108.11 240.09Z"/><path fill="#D31A1A" d="M182.82 336.85V344.52L161.74 344.57L175.76 331.25L182.82 336.85Z"/><path fill="#B20F0F" d="M204.31 344.52H182.82L182.76 336.76L182.79 336.83L190.37 331.25L201.37 341.71L203.82 344.05L204.31 344.52Z"/><path fill="#441D12" d="M324.72 297C324.72 297 309 307.13 296 327.53C283 347.93 267 342.84 267 342.84C329.65 157.84 245.26 135.15 182 140.57V85.75L270 81.63L313 193.87C313 193.87 306 215.29 324.72 248.6C343.44 281.91 324.72 297 324.72 297Z"/><path fill="#592616" d="M182 85.75V140.57C162.237 142.394 142.764 146.584 124 153.05C112 176.52 103.55 174.43 103.55 174.43C107 201 83 189.79 87 207.13C89.9 219.69 82 234.68 80 248.97C78.46 259.97 85.29 298.06 87.65 307.3C87.65 307.3 23.47 323.74 23.23 244.52C23.23 244.52 -4.53001 219.52 23.23 183.2C23.23 183.2 3.99999 117.34 74 90.81L182 85.75Z"/><path fill="#E2C5BA" d="M267.74 229.93C267.74 229.93 348.68 253.36 274.38 310.93L267.74 229.93Z"/><path fill="#A81A13" d="M182 5.37V254.53C149.25 239.11 115 211.74 83.39 165.41C-28.84 1.18001 149.11 16.21 149.11 16.21C159.872 12.0136 170.851 8.39516 182 5.37V5.37Z"/><path fill="#891010" d="M367.53 219.54C362.261 230.705 354.622 240.588 345.144 248.5C335.666 256.411 324.577 262.161 312.65 265.35C283.71 273.22 234.65 279.35 181.98 254.53V5.37C202.07 2.86102e-06 212.14 0 212.14 0C268.81 9.68 313.64 59.25 326.64 75C329.127 78.0303 330.609 81.7594 330.88 85.67L333.88 127.23C380.24 159.18 378.93 195.08 367.53 219.54Z"/><path fill="#891010" d="M182 254.53C182 254.53 144.88 236.85 123.45 213.42L182 233.47V254.53Z"/><path fill="#fff" d="M182.96 417.68L145.99 399V461L182.96 488.62V417.68Z"/><path fill="#EDEDED" d="M182.99 417.68L221 397.94V460.18L182.99 488.62V417.68Z"/><path fill="#344075" d="M79 573.44C79 573.44 113.42 624.22 107 632.62C54 702 64 960.15 64 960.15L109 982.6C168 1060.15 185 841.71 185 841.71V492.71L146 399L122.77 417.68L114.11 435C114.11 435 102.65 461.52 57.84 487.48C51.0718 491.399 45.1204 496.583 40.31 502.75L17 532.62L0 547.93L18 555.07L8.39 579.07C7.74242 580.669 7.72375 582.453 8.33774 584.065C8.95173 585.677 10.1529 586.997 11.7 587.76L32.89 597.94L35.89 649.77C36.54 659.69 42.89 673.06 50.03 679.77L152.7 768.5V712.27L99.52 649.27V606.89L116.12 613.67L96.46 554.79L79 573.44Z"/><path fill="#253360" d="M348 555.07L366 547.93L349 532.62L325.68 502.7C320.867 496.536 314.916 491.352 308.15 487.43C263.34 461.43 251.87 434.96 251.87 434.96L243.23 417.67L221 397.94L183 488.62V860.07C183 860.07 185.58 843.07 189.42 819.43C194.35 789.01 201.35 747.52 207.62 716.83C212.93 690.83 217.7 672.61 220.25 675.3C222.05 677.2 224.19 684.44 226.57 695.53L213.3 712.27V768.54L236 748.93C248.42 827.55 263.69 944.93 275 978.52L302 960.15C302 960.15 306.62 805.86 286.47 705.31L316 679.81C323.14 673.06 329.49 659.68 330.14 649.81L333.14 597.98L354.33 587.79C355.878 587.031 357.08 585.713 357.695 584.102C358.309 582.491 358.29 580.707 357.64 579.11L348 555.07ZM259 632.62C256.18 629.28 260.48 618.62 266.49 607.18V643.63C264.35 639.73 261.842 636.043 259 632.62Z"/><path fill="#253360" d="M185 603.12C185 603.12 175 575.48 122 552L185 645.92V603.12Z"/><path fill="#B20F0F" d="M183 439C183 439 206 425.46 183 417.29L180.73 420.04L181 437.4L183 439Z"/><path fill="#D31A1A" d="M183 439C183 439 160 425.46 183 417.29V439Z"/><path fill="#D31A1A" d="M175.89 423.1C175.89 423.1 138 383.65 140 414.26C142 444.87 145.78 467.6 175.89 430.26V423.1Z"/><path fill="#B20F0F" d="M191 423.1C191 423.1 228.89 383.65 226.89 414.26C224.89 444.87 221.11 467.6 191 430.26V423.1Z"/></g></g><defs><clipPath id="clip0"><rect width="374" height="617" fill="#fff"/></clipPath><clipPath id="clip1"><rect width="374.18" height="1153" fill="#fff"/></clipPath></defs></svg>