<svg xmlns="http://www.w3.org/2000/svg" viewBox="0 0 425.62 1131"><defs><style>.cls-1{fill:#fff;}.cls-2{fill:#aaa;}.cls-3{fill:#996a53;}.cls-4{fill:#bc8769;}</style></defs><g id="Calque_4" data-name="Calque 4"><polygon points="404.3 480.23 404.3 644.87 380.45 702.29 375.36 714.55 50.43 714.55 45.34 702.29 21.48 644.84 21.48 476.45 35.8 392.22 38.29 377.6 52.02 379.49 103.28 353.25 132.04 338.52 151.15 313 274.49 313 274.32 313.06 296.38 338.08 322.88 351.65 323.19 351.81 376.4 379.04 386.78 377.15 389.4 392.58 404.3 480.23"/><polygon class="cls-1" points="274.62 312.06 274.62 484 151.62 484 151.62 311.58 175.14 298 250.27 298 274.62 312.06"/><polygon class="cls-2" points="274.62 312.06 274.62 451 212.62 451 212.62 298 250.27 298 274.62 312.06"/><rect x="336.86" y="434.36" width="43.28" height="43.28" transform="translate(282.06 -222.94) rotate(45)"/><rect class="cls-3" x="177.34" y="294.94" width="71.75" height="34"/><polygon class="cls-4" points="249 328.94 249 329 177.24 329 177.24 295 213.62 295 213.62 329 249 328.94"/><path id="Cheveux" d="M471,196.57v43.94a70.81,70.81,0,0,1-70.6,70.61H316.94a70.81,70.81,0,0,1-70.6-70.61V196.6c5.08-8.95,9.81-20.87,13.29-34.29a153.36,153.36,0,0,0,4.9-30.77,70.62,70.62,0,0,1,40.88-22.49c12.72-3.69,31.86-6,53.27-6s40.52,2.35,53.24,6h0a70.75,70.75,0,0,1,41.11,22.73h0a153.33,153.33,0,0,0,4.9,30.89C461.39,175.89,466,187.66,471,196.57Z" transform="translate(-145.38 -103)"/><path class="cls-4" d="M466.05,246.07V298.6A106.15,106.15,0,0,1,465.2,312h0c0,.21-.05.41-.08.62l-17.56,46c-.15.23-.31.45-.48.68v0l-52.59,40.39h0a106.74,106.74,0,0,1-71.81,0l-52.58-40.6-18-47.08a106.9,106.9,0,0,1-.85-13.46V246.07q0-4.08.31-8.1a106.76,106.76,0,0,1,27.18-63.43c2-2.23,4.05-4.35,6.23-6.39h0a106.44,106.44,0,0,1,11.1-9.2h0A105.93,105.93,0,0,1,312.93,149h0c2-1,4-1.86,6.12-2.68a106.25,106.25,0,0,1,39.62-7.62h.51A106.12,106.12,0,0,1,399,146.6c1.85.76,3.66,1.55,5.45,2.41a108.28,108.28,0,0,1,28.47,19.67l1.61,1.57c1.28,1.29,2.53,2.59,3.74,3.94h0A106.86,106.86,0,0,1,465.74,238Q466.05,242,466.05,246.07Z" transform="translate(-145.38 -103)"/><path class="cls-4" d="M258,246.07s-78.74,29.74,0,79.91Z" transform="translate(-145.38 -103)"/><path class="cls-3" d="M459,246.36S537.73,276,459,326Z" transform="translate(-145.38 -103)"/><path class="cls-3" d="M466.27,245.94v52.53a105.52,105.52,0,0,1-.84,13.38v0l-.31.78-17.56,46-.16.43v0l-.31.23v0l-52.59,40.39h0A101.68,101.68,0,0,1,359,406l.16-267.43c2.82,0,5.6.13,8.37.35h.1A105.84,105.84,0,0,1,399,146.41c1.79.71,3.55,1.49,5.28,2.32A107.6,107.6,0,0,1,433,168.42c.58.56,1.17,1.13,1.74,1.7q1.78,1.78,3.48,3.64h0A107,107,0,0,1,466,238.08Q466.27,242,466.27,245.94Z" transform="translate(-145.38 -103)"/><rect class="cls-4" x="278.6" y="159.11" width="36.73" height="36.73" transform="translate(-54.37 352.45) rotate(-84.33)"/><rect class="cls-3" x="401.76" y="158.96" width="36.73" height="36.73" transform="translate(710.33 209.27) rotate(174.33)"/><rect class="cls-4" x="286.18" y="150.15" width="39.12" height="36.73" transform="translate(-182.67 0.7) rotate(-18.16)"/><rect class="cls-3" x="392.97" y="149.69" width="39.12" height="36.73" transform="translate(606.73 353.33) rotate(-161.84)"/><path class="cls-3" d="M404.59,149.93c0,6.16-20.28,11.15-45.4,11.22h-.51c-25.35,0-45.91-5-45.91-11.22s20.56-11.22,45.91-11.22h.51C384.31,138.78,404.59,143.77,404.59,149.93Z" transform="translate(-145.38 -103)"/><path class="cls-4" d="M359.19,138.71v22.44h-.51c-25.35,0-45.91-5-45.91-11.22s20.56-11.22,45.91-11.22Z" transform="translate(-145.38 -103)"/><g id="Lunettes"><path d="M352.89,245v20l-12.66,48.9A183.64,183.64,0,0,1,303.81,306c-24.43-7.87-45.1-19.74-59.1-32.75l-3.18-33.28a242.26,242.26,0,0,1,38.4-5,234.32,234.32,0,0,1,46.46,1.94C338.28,239,347.49,241.81,352.89,245Z" transform="translate(-145.38 -103)"/><path d="M364.48,245.05v20l12.66,48.9A184.4,184.4,0,0,0,413.56,306c24.42-7.87,45.1-19.73,59.1-32.75L475.84,240a242.26,242.26,0,0,0-38.4-5A236,236,0,0,0,391,236.89C379.09,239.1,369.88,241.89,364.48,245.05Z" transform="translate(-145.38 -103)"/><rect x="187.48" y="140.58" width="45.31" height="23.18"/></g><rect class="cls-1" x="297" y="417" width="48" height="48" transform="translate(118.13 -204.42) rotate(30)"/><polygon points="213.12 352.67 233.57 431.33 254.03 510 213.12 510 172.22 510 192.67 431.33 213.12 352.67"/><polygon points="215.74 507.49 213.07 508.37 159.98 525.79 103.39 353.29 132.18 338.55 151.31 313 151.94 313 213.05 499.29 215.74 507.49"/><rect class="cls-2" x="372.46" y="416.68" width="48" height="48" transform="translate(-312.6 154.27) rotate(-30)"/><polygon points="323.23 351.69 266.12 525.77 213.07 508.37 210.36 507.48 213.05 499.29 274.16 313 274.62 313.06 296.7 338.11 323.23 351.69"/><path d="M490.62,817.55v73.83L472,1171.16H372l-6.67-174.7-4.88-128.21c-.15-3.73-4.27-3.73-4.42,0l-4.88,128.21-6.67,174.7h-101L225.92,891.33V817.55Z" transform="translate(-145.38 -103)"/><polygon points="202.48 578.05 193.26 702.29 192.35 714.55 186.66 791.28 88.42 806.03 0 607.55 1.24 595.47 21.48 476.45 35.8 392.22 112.3 380.73 120.05 379.57 151.46 455.18 163.35 483.81 172.83 506.66 174.13 509.78 178.18 519.53 202.48 578.05"/><polygon points="425.62 607.97 337.19 806.45 238.95 791.7 233.23 714.55 232.32 702.29 223.13 578.46 247.54 519.68 247.59 519.55 251.66 509.78 252.95 506.66 262.43 483.81 274.32 455.2 305.56 379.99 313.21 381.13 313.55 381.18 389.4 392.58 404.3 480.23 425.01 602.05 425.62 607.97"/><rect x="92.46" y="1087.04" width="107.81" height="43.96" rx="18.94"/><rect x="258.24" y="1163.96" width="67.03" height="49.06" rx="21.94" transform="translate(438.12 2273.99) rotate(180)"/><polygon points="102.5 1089 122.36 1074.85 146.37 1089 102.5 1089"/><polygon points="170.38 1074.85 190.25 1089 146.37 1089 170.38 1074.85"/><rect x="225.96" y="1087.04" width="107.81" height="43.96" rx="18.94"/><rect x="391.73" y="1163.96" width="67.03" height="49.06" rx="21.94" transform="translate(705.12 2273.99) rotate(180)"/><polygon points="235.99 1089 255.86 1074.85 279.87 1089 235.99 1089"/><polygon points="303.88 1074.85 323.75 1089 279.87 1089 303.88 1074.85"/></g><g id="Calque_5" data-name="Calque 5"><polygon class="cls-3" points="215.65 218.62 198.6 218.62 215.65 227 215.65 218.62"/><polygon class="cls-3" points="215.81 250.53 190.6 256.57 213.81 256.57 215.81 250.53"/></g></svg>