<svg width="426" height="608" viewBox="0 0 426 608" fill="none" xmlns="http://www.w3.org/2000/svg">
<g clip-path="url(#clip0)">
<g clip-path="url(#clip1)">
<path d="M404.3 480.23V644.87L380.45 702.29L375.36 714.55H50.43L45.34 702.29L21.48 644.84V476.45L35.8 392.22L38.29 377.6L52.02 379.49L103.28 353.25L132.04 338.52L151.15 313H274.49L274.32 313.06L296.38 338.08L322.88 351.65L323.19 351.81L376.4 379.04L386.78 377.15L389.4 392.58L404.3 480.23Z" fill="black"/>
<path d="M274.62 312.06V484H151.62V311.58L175.14 298H250.27L274.62 312.06Z" fill="white"/>
<path d="M274.62 312.06V451H212.62V298H250.27L274.62 312.06Z" fill="#AAAAAA"/>
<path d="M243.721 352.998L213.117 322.395L182.513 352.998L213.117 383.602L243.721 352.998Z" fill="black"/>
<path d="M249.09 294.94H177.34V328.94H249.09V294.94Z" fill="#996A53"/>
<path d="M249 328.94V329H177.24V295H213.62V329L249 328.94Z" fill="#BC8769"/>
<path d="M325.62 93.57V137.51C325.567 156.219 318.112 174.147 304.884 187.377C291.656 200.607 273.729 208.065 255.02 208.12H171.56C152.851 208.065 134.924 200.607 121.696 187.377C108.468 174.147 101.013 156.219 100.96 137.51V93.6C106.04 84.65 110.77 72.73 114.25 59.31C116.924 49.2463 118.566 38.9364 119.15 28.54C129.835 16.6283 144.249 8.69864 160.03 6.05C172.75 2.36 191.89 0.0500031 213.3 0.0500031C234.71 0.0500031 253.82 2.4 266.54 6.05C282.432 8.72353 296.935 16.7424 307.65 28.78V28.78C308.226 39.2168 309.868 49.5673 312.55 59.67C316.01 72.89 320.62 84.66 325.62 93.57Z" fill="black"/>
<path d="M320.67 143.07V195.6C320.67 200.08 320.386 204.556 319.82 209V209C319.82 209.21 319.77 209.41 319.74 209.62L302.18 255.62C302.03 255.85 301.87 256.07 301.7 256.3L249.11 296.69C225.892 304.983 200.518 304.983 177.3 296.69L124.72 256.09L106.72 209.01C106.154 204.546 105.87 200.05 105.87 195.55V143.07C105.87 140.35 105.973 137.65 106.18 134.97C107.968 111.401 117.528 89.0915 133.36 71.54C135.36 69.31 137.41 67.19 139.59 65.15C143.078 61.836 146.786 58.7623 150.69 55.95V55.95C155.991 52.12 161.635 48.7891 167.55 46V46C169.55 45 171.55 44.14 173.67 43.32C186.269 38.2728 199.718 35.6862 213.29 35.7H213.8C227.458 35.7463 240.979 38.4287 253.62 43.6C255.47 44.36 257.28 45.15 259.07 46.01C269.553 50.998 279.166 57.6395 287.54 65.68L289.15 67.25C290.43 68.54 291.68 69.84 292.89 71.19C308.898 88.8068 318.566 111.264 320.36 135C320.567 137.667 320.67 140.357 320.67 143.07Z" fill="#BC8769"/>
<path d="M112.62 143.07C112.62 143.07 33.88 172.81 112.62 222.98V143.07Z" fill="#BC8769"/>
<path d="M313.62 143.36C313.62 143.36 392.35 173 313.62 223V143.36Z" fill="#996A53"/>
<path d="M320.89 142.94V195.47C320.894 199.943 320.613 204.412 320.05 208.85L319.74 209.63L302.18 255.63L302.02 256.06L301.71 256.29L249.12 296.68C237.758 300.885 225.735 303.025 213.62 303L213.78 35.57C216.6 35.57 219.38 35.7 222.15 35.92H222.25C233.028 36.7995 243.607 39.3255 253.62 43.41C255.41 44.12 257.17 44.9 258.9 45.73C269.479 50.6905 279.179 57.3409 287.62 65.42C288.2 65.98 288.79 66.55 289.36 67.12C290.547 68.3067 291.707 69.52 292.84 70.76C309.056 88.4748 318.841 111.13 320.62 135.08C320.8 137.693 320.89 140.313 320.89 142.94Z" fill="#996A53"/>
<path d="M135.116 54.3827L131.487 90.9329L168.037 94.5618L171.666 58.0115L135.116 54.3827Z" fill="#BC8769"/>
<path d="M258.28 94.41L294.831 90.7811L291.202 54.2308L254.651 57.8597L258.28 94.41Z" fill="#996A53"/>
<path d="M173.224 41.9842L136.053 54.1768L147.501 89.0773L184.672 76.8847L173.224 41.9842Z" fill="#BC8769"/>
<path d="M242.817 76.4259L279.988 88.6185L291.436 53.718L254.264 41.5254L242.817 76.4259Z" fill="#996A53"/>
<path d="M259.21 46.93C259.21 53.09 238.93 58.08 213.81 58.15H213.3C187.95 58.15 167.39 53.15 167.39 46.93C167.39 40.71 187.95 35.71 213.3 35.71H213.81C238.93 35.78 259.21 40.77 259.21 46.93Z" fill="#996A53"/>
<path d="M213.81 35.71V58.15H213.3C187.95 58.15 167.39 53.15 167.39 46.93C167.39 40.71 187.95 35.71 213.3 35.71H213.81Z" fill="#BC8769"/>
<path d="M207.51 142V162L194.85 210.9C182.474 209.508 170.271 206.862 158.43 203C134 195.13 113.33 183.26 99.33 170.25L96.15 136.97C108.796 134.281 121.637 132.609 134.55 131.97C150.063 131.075 165.626 131.724 181.01 133.91C192.9 136 202.11 138.81 207.51 142Z" fill="black"/>
<path d="M219.1 142.05V162.05L231.76 210.95C244.137 209.537 256.34 206.873 268.18 203C292.6 195.13 313.28 183.27 327.28 170.25L330.46 137C317.814 134.311 304.973 132.639 292.06 132C276.555 131.1 261 131.733 245.62 133.89C233.71 136.1 224.5 138.89 219.1 142.05Z" fill="black"/>
<path d="M232.79 140.58H187.48V163.76H232.79V140.58Z" fill="black"/>
<path d="M208.409 329.213L166.84 305.213L142.84 346.782L184.409 370.782L208.409 329.213Z" fill="white"/>
<path d="M213.12 352.67L233.57 431.33L254.03 510H213.12H172.22L192.67 431.33L213.12 352.67Z" fill="black"/>
<path d="M215.74 507.49L213.07 508.37L159.98 525.79L103.39 353.29L132.18 338.55L151.31 313H151.94L213.05 499.29L215.74 507.49Z" fill="black"/>
<path d="M259.869 304.895L218.3 328.895L242.3 370.465L283.869 346.465L259.869 304.895Z" fill="#AAAAAA"/>
<path d="M323.23 351.69L266.12 525.77L213.07 508.37L210.36 507.48L213.05 499.29L274.16 313L274.62 313.06L296.7 338.11L323.23 351.69Z" fill="black"/>
<path d="M202.48 578.05L193.26 702.29L192.35 714.55L186.66 791.28L88.42 806.03L0 607.55L1.24 595.47L21.48 476.45L35.8 392.22L112.3 380.73L120.05 379.57L151.46 455.18L163.35 483.81L172.83 506.66L174.13 509.78L178.18 519.53L202.48 578.05Z" fill="black"/>
<path d="M425.62 607.97L337.19 806.45L238.95 791.7L233.23 714.55L232.32 702.29L223.13 578.46L247.54 519.68L247.59 519.55L251.66 509.78L252.95 506.66L262.43 483.81L274.32 455.2L305.56 379.99L313.21 381.13L313.55 381.18L389.4 392.58L404.3 480.23L425.01 602.05L425.62 607.97Z" fill="black"/>
<path d="M215.65 218.62H198.6L215.65 227V218.62Z" fill="#996A53"/>
<path d="M215.81 250.53L190.6 256.57H213.81L215.81 250.53Z" fill="#996A53"/>
</g>
</g>
<defs>
<clipPath id="clip0">
<rect width="426" height="608" fill="white"/>
</clipPath>
<clipPath id="clip1">
<rect width="425.62" height="1131" fill="white"/>
</clipPath>
</defs>
</svg>
