<svg width="380" height="421" viewBox="0 0 380 421" fill="none" xmlns="http://www.w3.org/2000/svg">
<g clip-path="url(#clip0)">
<g clip-path="url(#clip1)">
<path d="M191.66 224.4H99.47C99.47 224.4 99.29 217.95 54.92 173.57C39.25 157.9 64.49 124.83 64.49 124.83C64.49 124.83 40.49 151.78 14.38 95.75C12.2076 91.1128 11.2617 85.9957 11.6329 80.8883C12.0041 75.781 13.6799 70.8544 16.5 66.58C22.81 57.05 31.5 40.22 39.92 11.69C49.69 -21.38 65.27 23 135.76 54.34L191.66 44.4" fill="#EFEAEA"/>
<path d="M190.56 224.4H282.75C282.75 224.4 282.92 217.95 327.3 173.57C342.96 157.9 317.73 124.83 317.73 124.83C317.73 124.83 341.73 151.78 367.84 95.75C370.012 91.1128 370.958 85.9957 370.587 80.8883C370.216 75.781 368.54 70.8544 365.72 66.58C359.4 57.05 350.72 40.22 342.3 11.69C332.52 -21.38 316.95 23 246.45 54.34L190.56 44.4" fill="#E0D5D5"/>
<path d="M122.32 116.27L127.51 131.12C127.65 131.522 127.696 131.952 127.646 132.375C127.595 132.798 127.448 133.204 127.217 133.561C126.985 133.919 126.675 134.22 126.31 134.439C125.945 134.659 125.534 134.793 125.11 134.83C116.57 135.59 97.04 135.51 117.72 115.18C118.059 114.854 118.474 114.617 118.928 114.493C119.382 114.369 119.86 114.361 120.317 114.469C120.775 114.578 121.199 114.8 121.548 115.114C121.898 115.429 122.164 115.826 122.32 116.27V116.27Z" fill="#7F5E4F"/>
<path d="M257.89 116.27L252.66 131.12C252.52 131.522 252.473 131.952 252.524 132.375C252.575 132.798 252.722 133.204 252.953 133.561C253.185 133.919 253.495 134.22 253.86 134.439C254.225 134.659 254.635 134.793 255.06 134.83C263.6 135.59 283.13 135.51 262.45 115.18C262.111 114.863 261.698 114.634 261.249 114.515C260.8 114.397 260.329 114.391 259.877 114.499C259.425 114.607 259.007 114.825 258.66 115.134C258.314 115.443 258.049 115.834 257.89 116.27V116.27Z" fill="#604439"/>
<path d="M190.66 144.17C190.66 144.17 140.66 147.4 190.66 171.66Z" fill="#EAB5B5"/>
<path d="M190.44 144.17C190.44 144.17 240.44 147.4 190.44 171.66Z" fill="#DD9E9E"/>
<path d="M47.66 25.4L55.66 67.4C55.66 67.4 68.66 84.4 68.66 101.4C68.66 118.4 47.66 114.4 47.66 114.4L31.82 89.52C30.3521 87.2096 29.5552 84.5367 29.5181 81.7998C29.4811 79.0628 30.2053 76.3693 31.61 74.02C40.2954 59.1115 45.7628 42.5494 47.66 25.4V25.4Z" fill="#EAB5B5"/>
<path d="M335.52 25.4L327.52 67.4C327.52 67.4 314.52 84.4 314.52 101.4C314.52 118.4 335.52 114.4 335.52 114.4L351.35 89.52C352.819 87.2105 353.618 84.5382 353.657 81.8012C353.696 79.0642 352.973 76.3702 351.57 74.02C342.885 59.1115 337.417 42.5494 335.52 25.4V25.4Z" fill="#DD9E9E"/>
<path d="M190.54 171.19C190.54 171.19 198.86 191.19 127.66 191.19H190.54V171.19Z" fill="#E0D5D5"/>
<path d="M115.16 160.9L93.16 156.9" stroke="#E0D5D5" stroke-width="3" stroke-miterlimit="10"/>
<path d="M112.16 171.9L86.91 171.65" stroke="#E0D5D5" stroke-width="3" stroke-miterlimit="10"/>
<path d="M93.49 186.79L115.16 182.9" stroke="#E0D5D5" stroke-width="3" stroke-miterlimit="10"/>
<path d="M112.82 120.4C112.82 120.4 116.57 114.48 119.25 114.22C121.93 113.96 120.4 119.83 120.4 119.83C120.4 119.83 119.96 123.81 112.82 120.4Z" fill="white"/>
<path d="M259.19 114.74C259.19 114.74 257.26 115.19 255.96 121.79C255.96 121.79 266.72 123.08 259.19 114.74Z" fill="white"/>
<path d="M282.66 224.4L284.47 220.4L292.47 226.4L290.47 235.4L330.63 276.47C333.162 279.06 335.127 282.149 336.4 285.54L377.5 378.75C380.75 387.378 380.499 396.935 376.8 405.38L335.94 484.9C335.94 484.9 357.66 519.4 331.01 524.68C279.66 534.84 189.66 538.85 189.66 538.85L189.54 224.4H282.66Z" fill="#577011"/>
<path d="M99.47 224.4L97.66 220.4L87.66 226.4L89.66 235.4L49.5 276.47C46.9679 279.06 45.0029 282.149 43.73 285.54L2.27002 379.69C-0.775066 387.745 -0.775066 396.635 2.27002 404.69L44.16 498.9C44.16 498.9 18.66 582.4 49.09 566.68C95.56 542.68 190.44 538.85 190.44 538.85L190.56 224.4H99.47Z" fill="#668919"/>
<path d="M190.55 235.02H147.66L190.55 242.09V235.02Z" fill="#577011"/>
</g>
</g>
<defs>
<clipPath id="clip0">
<rect width="380" height="421" fill="white"/>
</clipPath>
<clipPath id="clip1">
<rect width="379.74" height="842.4" fill="white"/>
</clipPath>
</defs>
</svg>
