<svg xmlns="http://www.w3.org/2000/svg" viewBox="0 0 379.74 842.4"><defs><style>.cls-1{fill:#efeaea;}.cls-2{fill:#e0d5d5;}.cls-3{fill:#7f5e4f;}.cls-4{fill:#604439;}.cls-5{fill:#eab5b5;}.cls-6{fill:#dd9e9e;}.cls-7{fill:none;stroke:#e0d5d5;stroke-miterlimit:10;stroke-width:3px;}.cls-8{fill:#fff;}.cls-9{fill:#566b7a;}.cls-10{fill:#455660;}.cls-11{fill:#577011;}.cls-12{fill:#668919;}.cls-13{fill:#8da3aa;}.cls-14{fill:#6b8387;}.cls-15{fill:#bf3636;}.cls-16{fill:#ccc5ba;}.cls-17{fill:#dbd4c8;}.cls-18{fill:#9b2c2c;}.cls-19{fill:#aa9f94;}.cls-20{fill:#c1b9ae;}</style></defs><g id="Tête"><path class="cls-1" d="M363,608H270.81s-.18-6.45-44.55-50.83c-15.67-15.67,9.57-48.74,9.57-48.74s-24,26.95-50.11-29.08a29.92,29.92,0,0,1,2.12-29.17c6.31-9.53,15-26.36,23.42-54.89,9.77-33.07,25.35,11.31,95.84,42.65L363,428" transform="translate(-171.34 -383.6)"/><path class="cls-2" d="M361.9,608h92.19s.17-6.45,44.55-50.83c15.66-15.67-9.57-48.74-9.57-48.74s24,26.95,50.11-29.08a29.92,29.92,0,0,0-2.12-29.17c-6.32-9.53-15-26.36-23.42-54.89-9.78-33.07-25.35,11.31-95.85,42.65L361.9,428" transform="translate(-171.34 -383.6)"/></g><g id="Visage"><path class="cls-3" d="M293.66,499.87l5.19,14.85a2.8,2.8,0,0,1-2.4,3.71c-8.54.76-28.07.68-7.39-19.65A2.81,2.81,0,0,1,293.66,499.87Z" transform="translate(-171.34 -383.6)"/><path class="cls-4" d="M429.23,499.87,424,514.72a2.8,2.8,0,0,0,2.4,3.71c8.54.76,28.07.68,7.39-19.65A2.81,2.81,0,0,0,429.23,499.87Z" transform="translate(-171.34 -383.6)"/><path class="cls-5" d="M362,527.77s-50,3.23,0,27.49" transform="translate(-171.34 -383.6)"/><path class="cls-6" d="M361.78,527.77s50,3.23,0,27.49" transform="translate(-171.34 -383.6)"/><path class="cls-5" d="M219,409l8,42s13,17,13,34-21,13-21,13l-15.84-24.88a14.77,14.77,0,0,1-.21-15.5A123.58,123.58,0,0,0,219,409Z" transform="translate(-171.34 -383.6)"/><path class="cls-6" d="M506.86,409l-8,42s-13,17-13,34,21,13,21,13l15.83-24.88a14.77,14.77,0,0,0,.22-15.5A123.58,123.58,0,0,1,506.86,409Z" transform="translate(-171.34 -383.6)"/><path class="cls-2" d="M361.88,554.79s8.32,20-62.88,20h62.88Z" transform="translate(-171.34 -383.6)"/><line class="cls-7" x1="115.16" y1="160.9" x2="93.16" y2="156.9"/><line class="cls-7" x1="112.16" y1="171.9" x2="86.91" y2="171.65"/><line class="cls-7" x1="93.49" y1="186.79" x2="115.16" y2="182.9"/><path class="cls-8" d="M284.16,504s3.75-5.92,6.43-6.18,1.15,5.61,1.15,5.61S291.3,507.41,284.16,504Z" transform="translate(-171.34 -383.6)"/><path class="cls-8" d="M430.53,498.34s-1.93.45-3.23,7.05C427.3,505.39,438.06,506.68,430.53,498.34Z" transform="translate(-171.34 -383.6)"/></g><g id="Vêtements"><polygon class="cls-9" points="191.66 586.85 179.55 746.17 90.76 746.17 49.09 545.49 191.66 518.43 191.66 586.85"/><polygon class="cls-10" points="190.66 587.09 202.77 746.4 291.55 746.4 333.66 511.4 190.66 518.66 190.66 587.09"/><path class="cls-11" d="M454,608l1.81-4,8,6-2,9,40.16,41.07a26.09,26.09,0,0,1,5.77,9.07l41.1,93.21a35.33,35.33,0,0,1-.7,26.63L507.28,868.5S529,903,502.35,908.28C451,918.44,361,922.45,361,922.45L360.88,608Z" transform="translate(-171.34 -383.6)"/><path class="cls-12" d="M270.81,608,269,604l-10,6,2,9-40.16,41.07a26.09,26.09,0,0,0-5.77,9.07l-41.46,94.15a35.35,35.35,0,0,0,0,25L215.5,882.5S190,966,220.43,950.28c46.47-24,141.35-27.83,141.35-27.83L361.9,608Z" transform="translate(-171.34 -383.6)"/><rect class="cls-13" x="82.66" y="742.4" width="104" height="42" rx="8.47"/><rect class="cls-14" x="194.66" y="742.4" width="104" height="42" rx="8.47"/><polygon class="cls-15" points="106.66 796.4 113.15 784.4 155.66 784.4 162.66 796.4 106.66 796.4"/><path class="cls-16" d="M341,1201a34.92,34.92,0,0,1-10.5,25h-49a34.92,34.92,0,0,1-10.5-25c0-.15,0-.31,0-.46a35,35,0,0,1,70,0C341,1200.69,341,1200.85,341,1201Z" transform="translate(-171.34 -383.6)"/><path class="cls-17" d="M346,1209.44v6.12A10.46,10.46,0,0,1,335.6,1226H276.47A10.47,10.47,0,0,1,266,1215.56v-6.12A10.48,10.48,0,0,1,276.47,1199H335.6a10.25,10.25,0,0,1,5.42,1.54A10.43,10.43,0,0,1,346,1209.44Z" transform="translate(-171.34 -383.6)"/><polygon class="cls-18" points="218.66 796.4 225.15 784.4 267.66 784.4 274.66 796.4 218.66 796.4"/><path class="cls-19" d="M453,1201a34.92,34.92,0,0,1-10.5,25h-49a34.92,34.92,0,0,1-10.5-25c0-.15,0-.31,0-.46a35,35,0,0,1,70,0C453,1200.69,453,1200.85,453,1201Z" transform="translate(-171.34 -383.6)"/><path class="cls-20" d="M458,1209.44v6.12A10.46,10.46,0,0,1,447.6,1226H388.47A10.47,10.47,0,0,1,378,1215.56v-6.12A10.48,10.48,0,0,1,388.47,1199H447.6a10.25,10.25,0,0,1,5.42,1.54A10.43,10.43,0,0,1,458,1209.44Z" transform="translate(-171.34 -383.6)"/><polygon class="cls-10" points="191.15 593.54 160.66 581.4 191.15 581.4 191.15 593.54"/><polygon class="cls-11" points="190.55 235.02 147.66 235.02 190.55 242.09 190.55 235.02"/><path class="cls-11" d="M216,952s86-28,147.78-29.55V899S266,926.74,216,952Z" transform="translate(-171.34 -383.6)"/></g></svg>